<svg width="272" height="80" viewBox="0 0 272 80" fill="none" xmlns="http://www.w3.org/2000/svg">
<path d="M64.35 26.6903C64.35 26.9358 64.2681 27.1269 64.1044 27.2633C63.9406 27.3724 63.7906 27.5225 63.6541 27.7135C63.3813 27.9591 63.1357 28.2184 62.9174 28.4912C62.7264 28.7368 62.4944 28.9824 62.2215 29.228C62.1124 29.3371 61.9623 29.4872 61.7713 29.6782C61.5803 29.842 61.3756 30.0193 61.1573 30.2103C60.9663 30.3741 60.7617 30.5241 60.5434 30.6606C60.3523 30.797 60.1886 30.8652 60.0522 30.8652C59.8339 30.8652 59.5474 30.797 59.1926 30.6606C58.8652 30.4969 58.5787 30.3877 58.3331 30.3331C58.1421 30.3058 57.9647 30.2922 57.801 30.2922C57.6645 30.2649 57.5281 30.1831 57.3917 30.0466C56.9005 29.9375 56.5867 29.7737 56.4502 29.5554C56.3138 29.3099 56.1637 29.0643 56 28.8187C56 28.7095 56.0409 28.6413 56.1228 28.614C56.2047 28.5867 56.2729 28.5322 56.3274 28.4503C56.6003 28.0956 56.8323 27.809 57.0233 27.5907C57.2143 27.3452 57.4326 27.0996 57.6782 26.854C58.1421 26.4447 58.5787 26.0217 58.988 25.5851C59.4246 25.1485 59.8748 24.7392 60.3387 24.3572C60.557 24.3299 60.7207 24.248 60.8299 24.1116C60.939 23.9752 61.1028 23.9069 61.3211 23.9069C61.5394 23.9069 61.7167 23.9752 61.8532 24.1116C62.0169 24.248 62.1533 24.4118 62.2625 24.6028C62.3989 24.7665 62.5217 24.9439 62.6309 25.1349C62.7673 25.2986 62.9174 25.4214 63.0811 25.5033C63.2721 25.6397 63.5313 25.8171 63.8588 26.0354C64.1862 26.2537 64.35 26.472 64.35 26.6903ZM58.7424 34.3035C58.9334 34.4126 59.0698 34.5627 59.1517 34.7537C59.2609 34.9174 59.4109 35.0402 59.6019 35.1221C59.7657 35.2039 59.943 35.2449 60.134 35.2449C60.3251 35.2449 60.4888 35.2722 60.6252 35.3267C60.7344 35.3813 60.8162 35.4495 60.8708 35.5314C60.9254 35.6133 60.98 35.6951 61.0345 35.777C61.1983 35.9134 61.4438 36.0362 61.7713 36.1454C62.126 36.2545 62.358 36.3773 62.4671 36.5137C62.6581 36.7593 62.7946 37.0731 62.8764 37.4552C62.9856 37.8372 63.0675 38.2465 63.122 38.6831C63.1766 39.0924 63.2175 39.5154 63.2448 39.952C63.2721 40.3613 63.313 40.716 63.3676 41.0162C63.4222 41.6438 63.4904 42.2714 63.5723 42.899C63.6541 43.4993 63.6951 44.1133 63.6951 44.7409C63.6951 45.3685 63.6678 46.0098 63.6132 46.6647C63.5586 47.3196 63.5313 47.9608 63.5313 48.5884C63.5313 48.9159 63.5177 49.3252 63.4904 49.8164C63.4904 50.3076 63.3813 50.6896 63.163 50.9624C63.1357 51.0716 63.122 51.2626 63.122 51.5355V52.8453C63.122 53.009 63.1357 53.1727 63.163 53.3365C63.1902 53.5002 63.2039 53.6776 63.2039 53.8686C63.2039 54.1687 63.122 54.387 62.9583 54.5235C62.8764 54.4962 62.7809 54.4825 62.6718 54.4825C62.5899 54.4825 62.5081 54.4825 62.4262 54.4825C62.126 54.4825 61.9077 54.5371 61.7713 54.6463C61.4711 54.619 61.1846 54.5917 60.9117 54.5644C60.6389 54.5371 60.3523 54.5235 60.0522 54.5235C59.5883 54.5235 59.0835 54.5917 58.5377 54.7281C58.4286 54.4552 58.374 54.1687 58.374 53.8686C58.4013 53.5684 58.3467 53.2955 58.2103 53.0499C58.183 52.9681 58.1557 52.8999 58.1284 52.8453C58.1284 52.7634 58.1284 52.6816 58.1284 52.5997C58.2103 52.2722 58.2512 52.0539 58.2512 51.9448C58.2512 51.8084 58.2512 51.6719 58.2512 51.5355C58.2512 51.1535 58.2376 50.7714 58.2103 50.3894C58.183 49.9801 58.1966 49.5844 58.2512 49.2024C58.2512 49.066 58.2649 48.9432 58.2921 48.834C58.3467 48.7249 58.374 48.6021 58.374 48.4656C58.374 48.3292 58.3467 48.2337 58.2921 48.1791C58.2376 48.1246 58.2103 48.0563 58.2103 47.9745C58.2103 47.8926 58.2103 47.7562 58.2103 47.5652C58.2376 47.3741 58.2785 47.2514 58.3331 47.1968C58.3331 46.9785 58.3331 46.7738 58.3331 46.5828C58.3604 46.3645 58.374 46.1599 58.374 45.9688C58.374 45.5322 58.3604 45.0956 58.3331 44.659C58.3058 44.2224 58.2921 43.7995 58.2921 43.3902C58.2921 43.1992 58.2785 43.0764 58.2512 43.0218C58.2239 42.9672 58.1966 42.9263 58.1694 42.899C58.1421 42.8717 58.1011 42.8581 58.0466 42.8581C57.992 42.8308 57.9511 42.7762 57.9238 42.6943C58.0329 41.4937 57.992 40.2931 57.801 39.0924C57.61 37.8918 57.5145 36.6775 57.5145 35.4495C57.5145 35.2585 57.5417 35.1221 57.5963 35.0402C57.6509 34.9311 57.7191 34.8492 57.801 34.7946C57.8828 34.7401 57.9511 34.6855 58.0056 34.6309C58.0875 34.549 58.1421 34.4399 58.1694 34.3035C58.3877 34.358 58.5787 34.358 58.7424 34.3035Z" fill="#BAC4D1"/>
<path d="M81.9504 23.9888C82.387 23.9342 82.7144 23.9752 82.9327 24.1116C83.1783 24.2207 83.4239 24.289 83.6695 24.3162C83.8059 24.3435 83.9424 24.3572 84.0788 24.3572C84.2425 24.3299 84.4062 24.3162 84.57 24.3162C84.9247 24.3162 85.1976 24.3572 85.3886 24.439C85.6069 24.5209 85.8252 24.6983 86.0435 24.9711C86.0981 25.0257 86.1663 25.1076 86.2481 25.2167C86.3573 25.2986 86.4119 25.3805 86.4119 25.4623C86.4119 25.6806 86.3573 25.8716 86.2481 26.0354C86.139 26.1991 86.0844 26.431 86.0844 26.7312C86.0844 27.1951 86.139 27.659 86.2481 28.1228C86.3573 28.5594 86.4255 29.0097 86.4528 29.4736C86.5892 31.1654 86.6575 32.8709 86.6575 34.59C86.6847 36.2818 86.6984 37.96 86.6984 39.6245C86.6984 39.8428 86.6847 40.0475 86.6575 40.2385C86.6575 40.4022 86.6029 40.5523 86.4937 40.6887V41.2208C86.4664 41.9303 86.4801 42.6534 86.5347 43.3902C86.5892 44.0997 86.6165 44.8091 86.6165 45.5186C86.6165 46.1462 86.5756 46.7738 86.4937 47.4014C86.4392 48.029 86.4119 48.6703 86.4119 49.3252C86.4119 49.9255 86.4528 50.5122 86.5347 51.0852C86.6165 51.6583 86.6575 52.245 86.6575 52.8453C86.521 53.0909 86.4392 53.2819 86.4119 53.4183C86.3846 53.5548 86.33 53.6776 86.2481 53.7867C86.1663 53.8413 86.0708 53.8549 85.9616 53.8276C85.8798 53.8003 85.8115 53.8276 85.757 53.9095C85.6205 54.0732 85.525 54.2642 85.4705 54.4825C85.4159 54.7008 85.2794 54.8782 85.0611 55.0146C85.0066 55.3967 84.8565 55.6832 84.6109 55.8742C84.3926 56.0925 84.2289 56.3654 84.1197 56.6928C83.7923 56.7201 83.5603 56.7065 83.4239 56.6519C83.3147 56.5973 83.1919 56.5427 83.0555 56.4882C83.0282 56.0243 83.0282 55.6832 83.0555 55.4649C83.1101 55.2739 83.1374 55.0692 83.1374 54.8509C83.1374 54.578 83.0692 54.3734 82.9327 54.2369C82.7963 54.1005 82.7008 53.9231 82.6462 53.7048C82.346 53.5138 82.1414 53.391 82.0322 53.3365C81.9231 53.2546 81.8276 53.1591 81.7457 53.0499C81.582 52.8316 81.4456 52.5997 81.3364 52.3541C81.2273 52.1085 81.1045 51.8766 80.968 51.6583C80.586 51.0307 80.1903 50.3894 79.781 49.7345C79.399 49.0796 78.976 48.4384 78.5122 47.8107C78.4303 47.6743 78.3348 47.5515 78.2256 47.4424C78.1165 47.3332 78.021 47.2104 77.9391 47.074C77.4752 46.3372 77.0386 45.5868 76.6293 44.8228C76.22 44.0587 75.7425 43.3356 75.1967 42.6534C74.9784 42.3805 74.8147 42.0804 74.7056 41.7529C74.5964 41.3982 74.4327 41.098 74.2144 40.8524C74.1871 40.9889 74.1734 41.139 74.1734 41.3027C74.1734 41.4664 74.1734 41.6165 74.1734 41.7529C74.1734 42.6807 74.1871 43.6085 74.2144 44.5363C74.269 45.4367 74.2962 46.3509 74.2962 47.2786C74.2962 47.4697 74.269 47.647 74.2144 47.8107C74.1871 47.9472 74.1734 48.1109 74.1734 48.3019C74.1734 48.5748 74.1871 48.834 74.2144 49.0796C74.2417 49.3252 74.2553 49.5708 74.2553 49.8164C74.2553 50.1165 74.2417 50.4031 74.2144 50.6759C74.2144 50.9488 74.2007 51.2217 74.1734 51.4946C74.1189 51.8493 74.0507 52.1904 73.9688 52.5178C73.8869 52.818 73.846 53.1318 73.846 53.4593C73.846 53.6503 73.8596 53.8276 73.8869 53.9914C73.9415 54.1551 73.9688 54.3052 73.9688 54.4416C73.7778 54.7418 73.5322 54.8918 73.232 54.8918C72.9592 54.8918 72.7272 55.001 72.5362 55.2193C72.3725 55.192 72.236 55.2056 72.1269 55.2602C72.045 55.3148 71.9632 55.3421 71.8813 55.3421C71.7721 55.3421 71.6766 55.3284 71.5948 55.3012C71.5402 55.2739 71.472 55.2602 71.3901 55.2602C71.2537 55.2602 71.1173 55.3284 70.9808 55.4649C70.8444 55.6013 70.7079 55.6695 70.5715 55.6695C70.4896 55.6695 70.3396 55.615 70.1213 55.5058C69.9302 55.3967 69.7119 55.2602 69.4664 55.0965C69.2481 54.9601 69.0434 54.81 68.8524 54.6463C68.6614 54.5098 68.5659 54.4007 68.5659 54.3188C68.5386 54.1824 68.5249 53.9914 68.5249 53.7458C68.5249 53.4183 68.5386 53.1045 68.5659 52.8044C68.6204 52.4769 68.675 52.1495 68.7296 51.822C68.8115 50.8942 68.8524 49.9801 68.8524 49.0796C68.8524 48.1518 68.8524 47.2241 68.8524 46.2963C68.8524 45.9143 68.8524 45.5322 68.8524 45.1502C68.8797 44.7682 68.8933 44.3862 68.8933 44.0041C68.8933 43.1037 68.8524 42.2032 68.7705 41.3027C68.716 40.3749 68.6887 39.4608 68.6887 38.5603C68.6887 37.9327 68.716 37.3187 68.7705 36.7184C68.8251 36.0908 68.8524 35.4768 68.8524 34.8765C68.8524 34.4126 68.8387 33.9624 68.8115 33.5258C68.7842 33.0892 68.7705 32.6389 68.7705 32.175C68.7432 31.8749 68.7432 31.5611 68.7705 31.2336C68.7978 30.8789 68.8115 30.5514 68.8115 30.2513C68.8115 29.8965 68.7569 29.5691 68.6477 29.2689C68.5659 28.9415 68.5249 28.6413 68.5249 28.3684C68.5249 28.2047 68.5522 28.0546 68.6068 27.9182C68.6887 27.7545 68.7296 27.5907 68.7296 27.427C68.7296 27.2087 68.6887 26.9904 68.6068 26.7721C68.5522 26.5538 68.5249 26.3355 68.5249 26.1172C68.5249 25.8989 68.5522 25.6943 68.6068 25.5033C68.6614 25.3122 68.6887 25.1076 68.6887 24.8893C69.0707 24.6983 69.4118 24.6028 69.7119 24.6028C70.0121 24.6028 70.2304 24.7119 70.3668 24.9302C70.3668 25.4214 70.3941 25.8034 70.4487 26.0763C70.5033 26.3219 70.5442 26.5811 70.5715 26.854C70.5715 27.0177 70.5579 27.2087 70.5306 27.427C70.5306 27.6453 70.5442 27.8636 70.5715 28.0819C70.5988 28.2729 70.6534 28.4367 70.7352 28.5731C70.8444 28.7095 71.0217 28.7777 71.2673 28.7777C71.3219 28.9142 71.3901 29.037 71.472 29.1461C71.5539 29.2553 71.6084 29.3917 71.6357 29.5554C71.7994 29.4463 71.8949 29.2962 71.9222 29.1052C71.9495 28.9142 71.9495 28.7368 71.9222 28.5731C72.0587 28.6277 72.1815 28.655 72.2906 28.655C72.3998 28.6277 72.5089 28.6413 72.6181 28.6959C72.6726 29.0779 72.7409 29.419 72.8227 29.7192C72.9046 29.992 72.9319 30.3195 72.9046 30.7015C73.4503 31.1108 73.9142 31.6975 74.2962 32.4616C74.7056 33.1983 75.0876 33.8669 75.4423 34.4672C75.6333 34.7673 75.8516 35.0539 76.0972 35.3267C76.3701 35.5723 76.5747 35.8725 76.7112 36.2272C76.9295 36.3637 77.1068 36.541 77.2433 36.7593C77.3797 36.9776 77.5025 37.1959 77.6117 37.4142C78.1574 38.3693 78.7577 39.2971 79.4126 40.1975C80.0675 41.098 80.7497 41.9849 81.4592 42.8581C81.4865 42.6671 81.5001 42.4897 81.5001 42.326C81.5001 42.135 81.5001 41.9439 81.5001 41.7529L81.4592 38.0691C81.4592 37.8508 81.4456 37.6462 81.4183 37.4552C81.4183 37.2641 81.4046 37.0595 81.3773 36.8412C81.3228 36.1317 81.3091 35.4359 81.3364 34.7537C81.3637 34.0715 81.3637 33.3757 81.3364 32.6662C81.2818 31.9294 81.2409 31.179 81.2136 30.415C81.2136 29.6509 81.1863 28.8869 81.1317 28.1228C81.1045 27.659 81.0772 27.1951 81.0499 26.7312C81.0226 26.2673 81.009 25.8034 81.009 25.3395C81.009 24.7665 81.0635 24.248 81.1727 23.7841C81.2273 23.7296 81.2818 23.6886 81.3364 23.6613C81.4183 23.6068 81.5138 23.5795 81.6229 23.5795C81.7866 23.5795 81.8958 23.7159 81.9504 23.9888Z" fill="#BAC4D1"/>
<path d="M91.8557 55.0146C91.7466 54.9055 91.692 54.7554 91.692 54.5644C91.692 54.428 91.692 54.3188 91.692 54.2369C91.7193 54.1278 91.7466 54.005 91.7739 53.8686C91.9103 53.241 91.9785 52.6133 91.9785 51.9857C91.9785 51.3308 92.0058 50.6896 92.0604 50.062C92.0877 49.6799 92.1013 49.2979 92.1013 48.9159C92.1286 48.5339 92.1422 48.1518 92.1422 47.7698C92.1422 45.505 92.074 43.2537 91.9376 41.0162C91.8011 38.7513 91.7329 36.4728 91.7329 34.1807C91.7329 32.598 91.7602 31.0153 91.8148 29.4326C91.8694 27.8227 91.9103 26.2127 91.9376 24.6028C92.1832 24.4663 92.4833 24.4118 92.8381 24.439C93.1928 24.4663 93.4793 24.3435 93.6976 24.0707C93.8341 24.0434 93.9705 24.0434 94.1069 24.0707C94.2434 24.0707 94.3798 24.0707 94.5162 24.0707C94.8164 24.0707 95.1029 23.9752 95.3758 23.7841C95.6487 23.5931 95.9488 23.4294 96.2763 23.293C96.44 23.3475 96.5492 23.3748 96.6037 23.3748C96.6856 23.3475 96.7675 23.3339 96.8493 23.3339C96.9312 23.3339 97.1086 23.4294 97.3814 23.6204C97.6543 23.8114 97.9545 24.0297 98.2819 24.2753C98.6094 24.5209 98.9095 24.7528 99.1824 24.9711C99.4826 25.1894 99.6736 25.3259 99.7554 25.3805C100.438 25.8989 101.038 26.472 101.556 27.0996C102.102 27.6999 102.634 28.3139 103.153 28.9415C103.644 29.5691 104.176 30.2103 104.749 30.8652C105.322 31.4928 105.881 32.0795 106.427 32.6253C106.618 32.8436 106.809 33.0346 107 33.1983C107.219 33.362 107.423 33.5531 107.614 33.7714C107.696 33.8805 107.764 34.0033 107.819 34.1397C107.901 34.2489 107.983 34.3717 108.064 34.5081C108.228 34.6991 108.419 34.8629 108.638 34.9993C108.856 35.1357 109.06 35.2994 109.251 35.4905C109.388 35.5996 109.593 35.8179 109.865 36.1454C110.138 36.4728 110.275 36.7184 110.275 36.8821C110.275 36.9913 110.247 37.0868 110.193 37.1686C110.138 37.2505 110.084 37.346 110.029 37.4552C110.002 37.537 109.988 37.6598 109.988 37.8235C109.988 37.9873 109.975 38.0964 109.947 38.151C109.674 38.3693 109.524 38.5057 109.497 38.5603C109.47 38.6149 109.429 38.6694 109.374 38.724C109.292 38.8332 109.183 38.9287 109.047 39.0105C108.938 39.0651 108.856 39.1606 108.801 39.2971C108.747 39.3789 108.719 39.4608 108.719 39.5426C108.747 39.6245 108.733 39.72 108.678 39.8292C108.542 40.1293 108.324 40.4158 108.024 40.6887C107.723 40.9616 107.464 41.2618 107.246 41.5892C106.946 42.0804 106.646 42.5716 106.345 43.0627C106.045 43.5539 105.704 44.0314 105.322 44.4953C105.158 44.7136 104.981 44.9319 104.79 45.1502C104.626 45.3412 104.463 45.5459 104.299 45.7642C104.162 45.9279 104.04 46.1053 103.93 46.2963C103.821 46.46 103.698 46.651 103.562 46.8693C103.262 47.2514 102.975 47.6334 102.702 48.0154C102.43 48.3701 102.143 48.7385 101.843 49.1205C101.515 49.5844 101.161 50.0483 100.779 50.5122C100.397 50.9488 100.056 51.399 99.7554 51.8629C99.4553 52.3541 99.1415 52.8044 98.814 53.2137C98.4866 53.623 98.1318 54.0186 97.7498 54.4007C97.6407 54.4825 97.5042 54.6053 97.3405 54.769C97.1768 54.9328 97.013 55.0146 96.8493 55.0146C96.7402 55.0146 96.6447 54.9737 96.5628 54.8918C96.5082 54.81 96.4127 54.769 96.2763 54.769C96.249 54.769 96.1671 54.7827 96.0307 54.81C95.8943 54.8373 95.7305 54.8646 95.5395 54.8918L94.8028 54.9737C94.3662 55.192 94.0524 55.2875 93.8613 55.2602C93.6703 55.2602 93.4793 55.2739 93.2883 55.3012C93.1792 55.3284 93.0837 55.3694 93.0018 55.4239C92.9472 55.4785 92.879 55.5058 92.7971 55.5058C92.6061 55.5058 92.456 55.4103 92.3469 55.2193C92.2377 55.0556 92.074 54.9873 91.8557 55.0146ZM104.135 37.3324C104.135 37.1959 103.999 37.0049 103.726 36.7593C103.48 36.5137 103.289 36.3364 103.153 36.2272C102.962 36.0635 102.73 35.9134 102.457 35.777C102.211 35.6133 102.007 35.4359 101.843 35.2449C101.706 35.0812 101.57 34.9174 101.434 34.7537C101.324 34.5627 101.202 34.3853 101.065 34.2216C100.574 33.6758 100.069 33.1301 99.5508 32.5843C99.0596 32.0386 98.623 31.4383 98.241 30.7834C97.9954 30.6197 97.7635 30.4286 97.5452 30.2103C97.3269 29.992 97.0676 29.8147 96.7675 29.6782C96.7129 29.842 96.6856 30.0193 96.6856 30.2103C96.7129 30.3741 96.7265 30.5378 96.7265 30.7015C96.7265 31.3291 96.6992 31.9431 96.6447 32.5434C96.5901 33.1437 96.5628 33.7441 96.5628 34.3444C96.5628 35.8179 96.5901 37.2778 96.6447 38.724C96.7265 40.143 96.7675 41.5756 96.7675 43.0218C96.7675 43.5675 96.7675 44.1133 96.7675 44.659C96.7947 45.2048 96.8493 45.7505 96.9312 46.2963C96.8766 46.46 96.8493 46.6101 96.8493 46.7465C96.8493 46.883 96.8766 47.0603 96.9312 47.2786C97.1495 47.1422 97.3269 46.9785 97.4633 46.7875C97.627 46.5692 97.7771 46.3645 97.9135 46.1735C98.3774 45.5732 98.8277 44.9729 99.2643 44.3725C99.7281 43.7449 100.192 43.1173 100.656 42.4897C100.956 42.0804 101.256 41.6847 101.556 41.3027C101.884 40.8934 102.198 40.4704 102.498 40.0338C102.58 39.9247 102.702 39.7337 102.866 39.4608C103.057 39.1879 103.235 38.915 103.398 38.6422C103.589 38.342 103.753 38.0691 103.889 37.8235C104.053 37.578 104.135 37.4142 104.135 37.3324Z" fill="#BAC4D1"/>
<path d="M119.034 26.6903C119.034 26.9358 118.952 27.1269 118.788 27.2633C118.625 27.3724 118.475 27.5225 118.338 27.7135C118.065 27.9591 117.82 28.2184 117.601 28.4912C117.41 28.7368 117.178 28.9824 116.906 29.228C116.796 29.3371 116.646 29.4872 116.455 29.6782C116.264 29.842 116.06 30.0193 115.841 30.2103C115.65 30.3741 115.446 30.5241 115.227 30.6606C115.036 30.797 114.873 30.8652 114.736 30.8652C114.518 30.8652 114.231 30.797 113.877 30.6606C113.549 30.4969 113.263 30.3877 113.017 30.3331C112.826 30.3058 112.649 30.2922 112.485 30.2922C112.349 30.2649 112.212 30.1831 112.076 30.0466C111.585 29.9375 111.271 29.7737 111.134 29.5554C110.998 29.3099 110.848 29.0643 110.684 28.8187C110.684 28.7095 110.725 28.6413 110.807 28.614C110.889 28.5867 110.957 28.5322 111.012 28.4503C111.284 28.0956 111.516 27.809 111.707 27.5907C111.898 27.3452 112.117 27.0996 112.362 26.854C112.826 26.4447 113.263 26.0217 113.672 25.5851C114.109 25.1485 114.559 24.7392 115.023 24.3572C115.241 24.3299 115.405 24.248 115.514 24.1116C115.623 23.9752 115.787 23.9069 116.005 23.9069C116.223 23.9069 116.401 23.9752 116.537 24.1116C116.701 24.248 116.837 24.4118 116.947 24.6028C117.083 24.7665 117.206 24.9439 117.315 25.1349C117.451 25.2986 117.601 25.4214 117.765 25.5033C117.956 25.6397 118.215 25.8171 118.543 26.0354C118.87 26.2537 119.034 26.472 119.034 26.6903ZM113.426 34.3035C113.617 34.4126 113.754 34.5627 113.836 34.7537C113.945 34.9174 114.095 35.0402 114.286 35.1221C114.45 35.2039 114.627 35.2449 114.818 35.2449C115.009 35.2449 115.173 35.2722 115.309 35.3267C115.418 35.3813 115.5 35.4495 115.555 35.5314C115.609 35.6133 115.664 35.6951 115.719 35.777C115.882 35.9134 116.128 36.0362 116.455 36.1454C116.81 36.2545 117.042 36.3773 117.151 36.5137C117.342 36.7593 117.479 37.0731 117.561 37.4552C117.67 37.8372 117.752 38.2465 117.806 38.6831C117.861 39.0924 117.902 39.5154 117.929 39.952C117.956 40.3613 117.997 40.716 118.052 41.0162C118.106 41.6438 118.174 42.2714 118.256 42.899C118.338 43.4993 118.379 44.1133 118.379 44.7409C118.379 45.3685 118.352 46.0098 118.297 46.6647C118.243 47.3196 118.215 47.9608 118.215 48.5884C118.215 48.9159 118.202 49.3252 118.174 49.8164C118.174 50.3076 118.065 50.6896 117.847 50.9624C117.82 51.0716 117.806 51.2626 117.806 51.5355V52.8453C117.806 53.009 117.82 53.1727 117.847 53.3365C117.874 53.5002 117.888 53.6776 117.888 53.8686C117.888 54.1687 117.806 54.387 117.642 54.5235C117.561 54.4962 117.465 54.4825 117.356 54.4825C117.274 54.4825 117.192 54.4825 117.11 54.4825C116.81 54.4825 116.592 54.5371 116.455 54.6463C116.155 54.619 115.869 54.5917 115.596 54.5644C115.323 54.5371 115.036 54.5235 114.736 54.5235C114.272 54.5235 113.768 54.5917 113.222 54.7281C113.113 54.4552 113.058 54.1687 113.058 53.8686C113.085 53.5684 113.031 53.2955 112.894 53.0499C112.867 52.9681 112.84 52.8999 112.812 52.8453C112.812 52.7634 112.812 52.6816 112.812 52.5997C112.894 52.2722 112.935 52.0539 112.935 51.9448C112.935 51.8084 112.935 51.6719 112.935 51.5355C112.935 51.1535 112.922 50.7714 112.894 50.3894C112.867 49.9801 112.881 49.5844 112.935 49.2024C112.935 49.066 112.949 48.9432 112.976 48.834C113.031 48.7249 113.058 48.6021 113.058 48.4656C113.058 48.3292 113.031 48.2337 112.976 48.1791C112.922 48.1246 112.894 48.0563 112.894 47.9745C112.894 47.8926 112.894 47.7562 112.894 47.5652C112.922 47.3741 112.963 47.2514 113.017 47.1968C113.017 46.9785 113.017 46.7738 113.017 46.5828C113.044 46.3645 113.058 46.1599 113.058 45.9688C113.058 45.5322 113.044 45.0956 113.017 44.659C112.99 44.2224 112.976 43.7995 112.976 43.3902C112.976 43.1992 112.963 43.0764 112.935 43.0218C112.908 42.9672 112.881 42.9263 112.853 42.899C112.826 42.8717 112.785 42.8581 112.731 42.8581C112.676 42.8308 112.635 42.7762 112.608 42.6943C112.717 41.4937 112.676 40.2931 112.485 39.0924C112.294 37.8918 112.199 36.6775 112.199 35.4495C112.199 35.2585 112.226 35.1221 112.28 35.0402C112.335 34.9311 112.403 34.8492 112.485 34.7946C112.567 34.7401 112.635 34.6855 112.69 34.6309C112.772 34.549 112.826 34.4399 112.853 34.3035C113.072 34.358 113.263 34.358 113.426 34.3035Z" fill="#BAC4D1"/>
<path d="M129.226 43.7995C129.28 43.9359 129.471 44.2224 129.799 44.659C130.154 45.0956 130.549 45.5732 130.986 46.0916C131.423 46.6101 131.832 47.1149 132.214 47.6061C132.623 48.07 132.91 48.4111 133.073 48.6294C133.374 49.0114 133.66 49.3934 133.933 49.7754C134.233 50.1302 134.506 50.5122 134.752 50.9215L135.488 52.1495C135.707 52.4223 135.898 52.6543 136.061 52.8453C136.252 53.0363 136.402 53.2955 136.512 53.623C136.566 53.8413 136.593 53.9914 136.593 54.0732C136.593 54.2642 136.525 54.4007 136.389 54.4825C136.171 54.4825 136.048 54.5098 136.02 54.5644C136.02 54.6463 135.966 54.7145 135.857 54.769C135.748 54.8236 135.57 54.8509 135.325 54.8509C135.106 54.8782 134.929 54.8918 134.793 54.8918C134.547 54.8918 134.233 54.8782 133.851 54.8509C133.496 54.8509 133.21 54.8918 132.992 54.9737C132.937 55.001 132.855 55.0419 132.746 55.0965C132.637 55.1511 132.555 55.1784 132.5 55.1784C132.282 55.1784 132.118 55.1374 132.009 55.0556C131.927 55.001 131.805 54.9601 131.641 54.9328C131.423 54.6872 131.232 54.4416 131.068 54.196C130.931 53.9231 130.768 53.6503 130.577 53.3774C130.386 53.1864 130.195 53.0227 130.004 52.8862C129.813 52.7225 129.649 52.5451 129.512 52.3541C129.103 51.7538 128.68 51.1671 128.244 50.5941C127.807 50.021 127.357 49.4616 126.893 48.9159C126.675 48.6157 126.443 48.3429 126.197 48.0973C125.951 47.8517 125.719 47.5788 125.501 47.2786C125.283 47.0058 125.078 46.7192 124.887 46.4191C124.696 46.0916 124.505 45.7778 124.314 45.4777C124.15 45.2321 123.932 44.9183 123.659 44.5363C123.386 44.1269 123.086 43.7313 122.759 43.3492C122.431 42.9399 122.104 42.5579 121.776 42.2032C121.449 41.8484 121.176 41.5756 120.958 41.3846C120.931 41.2208 120.862 41.098 120.753 41.0162C120.644 40.907 120.521 40.8115 120.385 40.7297C120.33 40.5932 120.276 40.4704 120.221 40.3613C120.139 40.2248 120.098 40.0884 120.098 39.952C120.098 39.7609 120.139 39.5836 120.221 39.4199C120.276 39.3107 120.317 39.2152 120.344 39.1333C120.344 39.0242 120.371 38.915 120.426 38.8059C120.562 38.5057 120.739 38.2192 120.958 37.9463C121.203 37.6462 121.394 37.3324 121.531 37.0049C121.585 36.9231 121.613 36.8412 121.613 36.7593C121.613 36.6502 121.64 36.5547 121.695 36.4728C121.749 36.2545 121.858 36.0771 122.022 35.9407C122.213 35.777 122.363 35.5996 122.472 35.4086C122.609 35.1903 122.731 34.972 122.841 34.7537C122.977 34.5081 123.113 34.2489 123.25 33.976C123.659 33.2938 124.082 32.6389 124.519 32.0113C124.983 31.3564 125.447 30.7015 125.91 30.0466C126.265 29.5009 126.606 28.9824 126.934 28.4912C127.288 27.9728 127.643 27.4543 127.998 26.9358C128.189 26.6903 128.394 26.4037 128.612 26.0763C128.83 25.7488 129.062 25.4214 129.308 25.0939C129.581 24.7665 129.854 24.4663 130.126 24.1935C130.399 23.9206 130.672 23.7023 130.945 23.5386C131.354 23.5113 131.627 23.6068 131.764 23.8251C131.9 24.0161 132.105 24.1116 132.378 24.1116C132.732 24.1935 132.964 24.3026 133.073 24.439C133.183 24.5755 133.305 24.7119 133.442 24.8484C133.824 24.8484 134.124 24.9166 134.342 25.053C134.588 25.1894 134.82 25.3941 135.038 25.667C134.956 25.9671 134.833 26.24 134.67 26.4856C134.506 26.7039 134.356 26.9358 134.219 27.1814C134.001 27.2906 133.837 27.4407 133.728 27.6317C133.646 27.8227 133.51 27.9728 133.319 28.0819C133.046 28.5458 132.76 28.996 132.459 29.4326C132.159 29.842 131.859 30.2513 131.559 30.6606C131.395 30.9062 131.218 31.1245 131.027 31.3155C130.863 31.5065 130.713 31.7111 130.577 31.9294C130.522 32.0113 130.467 32.1068 130.413 32.216C130.386 32.2978 130.345 32.3797 130.29 32.4616C129.963 32.98 129.608 33.4712 129.226 33.9351C128.844 34.3717 128.489 34.8629 128.162 35.4086C128.053 35.5996 127.957 35.8043 127.875 36.0226C127.821 36.2136 127.739 36.4046 127.63 36.5956C127.52 36.7593 127.357 36.9776 127.138 37.2505C126.947 37.5234 126.756 37.8235 126.565 38.151C126.374 38.4512 126.197 38.7513 126.033 39.0515C125.897 39.3243 125.829 39.5563 125.829 39.7473C125.856 39.8837 126.02 40.1566 126.32 40.5659C126.647 40.948 127.002 41.3709 127.384 41.8348C127.793 42.2714 128.175 42.6943 128.53 43.1037C128.885 43.4857 129.117 43.7176 129.226 43.7995ZM131.927 36.35C132.118 36.7593 132.323 37.1141 132.541 37.4142C132.623 37.5234 132.719 37.6189 132.828 37.7007C132.937 37.7826 133.019 37.8918 133.073 38.0282C133.128 38.0828 133.183 38.2056 133.237 38.3966C133.292 38.5603 133.346 38.6831 133.401 38.765C133.483 38.9833 133.646 39.2288 133.892 39.5017C134.138 39.7746 134.26 40.0202 134.26 40.2385C134.26 40.3749 134.233 40.525 134.179 40.6887C134.124 40.8524 134.083 41.0025 134.056 41.139C134.028 41.3027 134.015 41.4801 134.015 41.6711C134.015 41.8348 133.96 41.9849 133.851 42.1213C133.715 42.2578 133.565 42.3396 133.401 42.3669C133.237 42.3942 133.087 42.4624 132.951 42.5716C132.896 42.6261 132.814 42.7216 132.705 42.8581C132.596 42.9945 132.487 43.1446 132.378 43.3083C132.268 43.472 132.159 43.6358 132.05 43.7995C131.968 43.9359 131.927 44.0451 131.927 44.1269C131.6 44.1542 131.382 44.1679 131.272 44.1679C131.191 44.1406 131.095 44.1406 130.986 44.1679C130.849 44.0314 130.699 43.9223 130.536 43.8404C130.399 43.7313 130.222 43.6358 130.004 43.5539C129.949 43.3356 129.826 43.09 129.635 42.8171C129.444 42.517 129.28 42.2714 129.144 42.0804L128.858 41.712C128.448 41.139 128.066 40.5932 127.711 40.0748C127.384 39.529 127.138 38.9287 126.975 38.2738C127.493 37.8918 127.889 37.6052 128.162 37.4142C128.462 37.2232 128.776 37.0458 129.103 36.8821C129.431 36.7184 129.744 36.5683 130.045 36.4319C130.372 36.2682 130.672 36.0771 130.945 35.8588C131.163 35.8588 131.313 35.8725 131.395 35.8998C131.477 35.9271 131.532 35.9543 131.559 35.9816C131.586 36.0089 131.614 36.0635 131.641 36.1454C131.695 36.1999 131.791 36.2682 131.927 36.35Z" fill="#BAC4D1"/>
<path d="M151.82 23.293C151.847 23.3748 151.97 23.4703 152.188 23.5795C152.434 23.6886 152.584 23.7432 152.639 23.7432C153.021 23.6886 153.239 23.7023 153.293 23.7841C153.375 23.8387 153.457 23.9069 153.539 23.9888C153.648 23.9342 153.73 23.8796 153.785 23.8251C153.866 23.7432 153.976 23.7023 154.112 23.7023C154.248 23.7841 154.33 23.9069 154.358 24.0707C154.412 24.2071 154.48 24.3435 154.562 24.48C154.535 24.8347 154.535 25.0667 154.562 25.1758C154.59 25.2577 154.603 25.3532 154.603 25.4623C154.603 25.8716 154.48 26.3219 154.235 26.8131C153.989 27.2769 153.812 27.7135 153.703 28.1228C153.566 28.2593 153.471 28.4094 153.416 28.5731C153.389 28.7368 153.321 28.8869 153.212 29.0233C153.13 29.2962 153.007 29.5418 152.843 29.7601C152.679 29.9511 152.57 30.1831 152.516 30.4559C152.488 30.4832 152.42 30.5787 152.311 30.7424C152.229 30.9062 152.134 31.0835 152.025 31.2745C151.915 31.4656 151.806 31.6566 151.697 31.8476C151.615 32.0386 151.561 32.1614 151.533 32.216C151.452 32.3524 151.383 32.4888 151.329 32.6253C151.301 32.7344 151.247 32.8436 151.165 32.9527C151.11 33.1165 151.015 33.3211 150.878 33.5667C150.769 33.785 150.633 34.0169 150.469 34.2625C150.333 34.5081 150.21 34.7537 150.101 34.9993C149.992 35.2176 149.937 35.3813 149.937 35.4905C149.746 35.7088 149.637 35.9543 149.61 36.2272C148.873 37.6189 148.218 39.0515 147.645 40.525C147.072 41.9712 146.458 43.4038 145.803 44.8228C145.748 45.0684 145.708 45.2184 145.68 45.273C145.68 45.3276 145.653 45.3685 145.598 45.3958C145.517 45.5868 145.421 45.7778 145.312 45.9688C145.203 46.1326 145.121 46.3099 145.066 46.5009C144.957 46.8011 144.862 47.0876 144.78 47.3605C144.725 47.6061 144.602 47.8653 144.411 48.1382C144.384 48.3019 144.329 48.4656 144.248 48.6294C144.166 48.7658 144.138 48.9159 144.166 49.0796C144.248 49.1615 144.37 49.2161 144.534 49.2433C144.725 49.2433 144.875 49.2433 144.984 49.2433C145.148 49.2433 145.312 49.2433 145.476 49.2433C145.639 49.2161 145.803 49.2024 145.967 49.2024C146.13 49.2024 146.281 49.2161 146.417 49.2433C146.553 49.2433 146.69 49.2433 146.826 49.2433H147.85C147.959 49.2433 148.054 49.257 148.136 49.2843C148.245 49.2843 148.341 49.2843 148.423 49.2843C148.723 49.2843 149.037 49.2706 149.364 49.2433C149.719 49.2161 150.06 49.2024 150.387 49.2024C150.578 49.2024 150.783 49.2024 151.001 49.2024C151.22 49.1751 151.438 49.1888 151.656 49.2433C151.738 49.2706 151.793 49.3116 151.82 49.3661C151.874 49.4207 151.97 49.4207 152.106 49.3661C152.352 49.6117 152.502 49.7618 152.557 49.8164C152.611 49.871 152.666 49.9255 152.72 49.9801C152.72 50.0893 152.72 50.1848 152.72 50.2666C152.748 50.3212 152.761 50.3894 152.761 50.4713C152.761 50.7714 152.789 50.9761 152.843 51.0852C152.679 51.3308 152.625 51.5082 152.679 51.6173L152.475 52.0676C152.475 52.204 152.448 52.3541 152.393 52.5178C152.338 52.6543 152.338 52.7907 152.393 52.9271C152.257 53.1454 152.161 53.391 152.106 53.6639C152.079 53.9095 151.997 54.1414 151.861 54.3597C151.643 54.4416 151.424 54.4825 151.206 54.4825C150.988 54.4552 150.769 54.4689 150.551 54.5235C150.415 54.4689 150.224 54.4416 149.978 54.4416C149.76 54.4416 149.541 54.4552 149.323 54.4825C149.132 54.5098 148.927 54.5235 148.709 54.5235C148.627 54.5235 148.545 54.5235 148.464 54.5235C148.382 54.4962 148.3 54.4825 148.218 54.4825C147.918 54.5371 147.754 54.5507 147.727 54.5235C147.727 54.4962 147.699 54.4825 147.645 54.4825C147.345 54.4825 147.045 54.4962 146.744 54.5235C146.444 54.5235 146.144 54.5235 145.844 54.5235C145.735 54.5235 145.639 54.5371 145.557 54.5644C145.476 54.5917 145.394 54.6053 145.312 54.6053C145.23 54.6053 145.148 54.5917 145.066 54.5644C144.984 54.5371 144.903 54.5235 144.821 54.5235C144.684 54.5235 144.534 54.5371 144.37 54.5644C144.207 54.5917 144.043 54.6053 143.879 54.6053C143.797 54.6053 143.716 54.5917 143.634 54.5644C143.552 54.5644 143.47 54.5644 143.388 54.5644C143.252 54.5644 143.115 54.5917 142.979 54.6463C142.842 54.7008 142.692 54.7008 142.529 54.6463L141.955 54.7281C141.519 54.7281 141.082 54.7554 140.646 54.81C140.236 54.8646 139.813 54.8918 139.377 54.8918C139.131 54.8918 138.968 54.8782 138.886 54.8509C138.749 54.7418 138.585 54.6735 138.394 54.6463C138.203 54.619 138.026 54.5644 137.862 54.4825C137.835 54.2642 137.74 54.1005 137.576 53.9914C137.412 53.8822 137.262 53.7594 137.126 53.623C137.153 53.2955 137.126 53.0909 137.044 53.009C137.071 52.5724 136.989 52.2859 136.798 52.1495C136.825 51.9039 136.921 51.6719 137.085 51.4536C137.248 51.2353 137.344 51.0034 137.371 50.7578C137.589 50.5395 137.726 50.3758 137.781 50.2666C137.835 50.1575 137.862 50.0347 137.862 49.8982C138.026 49.7072 138.176 49.4753 138.313 49.2024C138.476 48.9022 138.626 48.5884 138.763 48.261C138.899 47.9335 139.022 47.6197 139.131 47.3196C139.24 46.9921 139.336 46.7056 139.418 46.46C139.636 46.1599 139.8 45.8461 139.909 45.5186C140.018 45.1912 140.141 44.8637 140.277 44.5363C140.496 44.1542 140.632 43.8814 140.687 43.7176C140.768 43.5266 140.878 43.3629 141.014 43.2265C141.041 43.1173 141.11 42.9126 141.219 42.6125C141.355 42.285 141.492 41.9439 141.628 41.5892C141.764 41.2345 141.901 40.9207 142.037 40.6478C142.201 40.3476 142.31 40.1566 142.365 40.0748C142.392 39.9383 142.447 39.8019 142.529 39.6654C142.61 39.529 142.651 39.3926 142.651 39.2561C142.924 38.9014 143.142 38.4648 143.306 37.9463C143.47 37.4279 143.647 36.9776 143.838 36.5956C144.029 36.1863 144.234 35.7906 144.452 35.4086C144.671 34.9993 144.889 34.59 145.107 34.1807C145.953 32.5434 146.799 30.8925 147.645 29.228C147.59 29.0916 147.468 29.0233 147.277 29.0233C147.113 29.0233 146.976 28.9824 146.867 28.9005C146.649 28.9551 146.444 28.9688 146.253 28.9415C146.062 28.9142 145.858 28.9005 145.639 28.9005C145.121 28.7914 144.684 28.7505 144.329 28.7777C144.002 28.7777 143.675 28.7777 143.347 28.7777C143.183 28.7777 143.006 28.7641 142.815 28.7368C142.651 28.7095 142.488 28.6959 142.324 28.6959C141.915 28.6959 141.492 28.7232 141.055 28.7777C140.646 28.8323 140.25 28.9005 139.868 28.9824C139.622 28.9278 139.363 28.9005 139.09 28.9005C138.845 28.9005 138.613 28.8733 138.394 28.8187C138.285 28.4094 138.258 28.1774 138.313 28.1228C138.258 28.041 138.19 27.9728 138.108 27.9182C138.053 27.8363 137.999 27.7545 137.944 27.6726C137.972 27.427 137.944 27.2769 137.862 27.2224C137.808 27.1405 137.753 27.0314 137.699 26.8949C137.699 26.7039 137.685 26.5265 137.658 26.3628C137.658 26.1718 137.685 25.9808 137.74 25.7898C137.685 25.6806 137.617 25.5988 137.535 25.5442C137.453 25.4623 137.385 25.3805 137.33 25.2986C137.358 25.1622 137.358 25.053 137.33 24.9711C137.33 24.862 137.344 24.7528 137.371 24.6437C137.535 24.5073 137.712 24.4118 137.903 24.3572C138.094 24.2753 138.244 24.1525 138.354 23.9888C138.708 23.8796 139.063 23.8114 139.418 23.7841C139.8 23.7569 140.168 23.7432 140.523 23.7432C140.905 23.7432 141.26 23.7569 141.587 23.7841C141.942 23.7841 142.283 23.7978 142.61 23.8251C142.856 23.8251 143.074 23.866 143.265 23.9479C143.484 24.0024 143.702 24.0434 143.92 24.0707C144.057 24.0979 144.193 24.1116 144.329 24.1116C144.466 24.0843 144.602 24.0707 144.739 24.0707C145.203 24.0707 145.667 24.0843 146.13 24.1116C146.622 24.1116 147.099 24.1116 147.563 24.1116C147.945 24.1116 148.3 24.1116 148.627 24.1116C148.955 24.1116 149.282 24.0843 149.61 24.0297C149.719 23.9206 149.801 23.8114 149.855 23.7023C149.91 23.5931 149.964 23.484 150.019 23.3748C150.265 23.3748 150.428 23.3885 150.51 23.4158C150.592 23.4158 150.66 23.4158 150.715 23.4158L151.206 23.6204C151.315 23.6204 151.438 23.6068 151.574 23.5795C151.711 23.5249 151.793 23.4294 151.82 23.293Z" fill="#BAC4D1"/>
<path d="M176.788 38.2738C176.733 38.3829 176.679 38.4921 176.624 38.6012C176.57 38.6831 176.529 38.7786 176.501 38.8877C176.611 38.9969 176.706 39.1197 176.788 39.2561C176.897 39.3653 176.952 39.4881 176.952 39.6245C176.952 39.7337 176.924 39.8428 176.87 39.952C176.842 40.0338 176.842 40.1157 176.87 40.1975C176.761 40.3886 176.638 40.5659 176.501 40.7297C176.392 40.8934 176.31 41.0707 176.256 41.2618C176.147 41.3709 176.051 41.4801 175.969 41.5892C175.915 41.6984 175.86 41.8075 175.806 41.9167C175.669 41.9712 175.574 42.0667 175.519 42.2032C175.492 42.3123 175.424 42.4078 175.314 42.4897C175.287 42.5988 175.151 42.8581 174.905 43.2674C174.66 43.6767 174.387 44.1133 174.086 44.5772C173.786 45.0411 173.5 45.4913 173.227 45.9279C172.954 46.3645 172.763 46.651 172.654 46.7875C172.599 46.9239 172.531 47.0331 172.449 47.1149C172.395 47.1968 172.326 47.2923 172.245 47.4014C172.19 47.4833 172.149 47.5788 172.122 47.688C172.094 47.7698 172.054 47.838 171.999 47.8926C171.944 48.0018 171.876 48.0973 171.794 48.1791C171.74 48.261 171.685 48.3701 171.631 48.5066C171.358 48.8613 171.085 49.2843 170.812 49.7754C170.539 50.2666 170.28 50.7032 170.034 51.0852C169.898 51.3035 169.761 51.5218 169.625 51.7401C169.516 51.9584 169.393 52.1767 169.257 52.395C169.12 52.6133 168.984 52.818 168.847 53.009C168.711 53.2 168.574 53.4047 168.438 53.623C168.22 53.7867 168.029 53.9914 167.865 54.2369C167.701 54.4552 167.51 54.6463 167.292 54.81C166.937 54.81 166.719 54.6463 166.637 54.3188C166.282 54.2369 166.105 54.2369 166.105 54.3188C166.105 54.4007 166.105 54.4689 166.105 54.5235C165.996 54.578 165.914 54.6599 165.859 54.769C165.832 54.8782 165.764 54.9601 165.655 55.0146C165.436 54.9601 165.245 54.8646 165.082 54.7281C164.945 54.619 164.741 54.578 164.468 54.6053C164.358 54.4416 164.236 54.3052 164.099 54.196C163.963 54.0596 163.84 53.9231 163.731 53.7867C163.676 53.623 163.594 53.4865 163.485 53.3774C163.403 53.2682 163.322 53.1591 163.24 53.0499C163.158 52.9135 163.076 52.7907 162.994 52.6816C162.912 52.5724 162.83 52.4633 162.749 52.3541C162.558 52.1085 162.367 51.8766 162.175 51.6583C162.012 51.4127 161.862 51.1671 161.725 50.9215C161.507 50.5941 161.289 50.2666 161.07 49.9392C160.879 49.5844 160.675 49.2433 160.456 48.9159C160.347 48.7522 160.238 48.5884 160.129 48.4247C160.02 48.261 159.924 48.0973 159.842 47.9335C159.788 47.7971 159.706 47.6334 159.597 47.4424C159.515 47.2514 159.406 47.1286 159.269 47.074C159.215 46.8557 159.119 46.692 158.983 46.5828C158.846 46.4737 158.71 46.3372 158.574 46.1735C158.383 45.9552 158.205 45.7233 158.041 45.4777C157.878 45.2048 157.714 44.9319 157.55 44.659C157.005 43.895 156.486 43.1446 155.995 42.4078C155.531 41.6711 155.067 40.907 154.603 40.1157C154.74 39.6791 154.808 39.3516 154.808 39.1333C154.808 38.915 154.876 38.7377 155.013 38.6012C155.013 38.4921 155.04 38.3284 155.094 38.1101C155.449 37.5097 155.79 36.964 156.118 36.4728C156.418 36.0089 156.622 35.6269 156.732 35.3267C156.868 35.0266 157.005 34.7128 157.141 34.3853C157.277 34.3035 157.387 34.208 157.468 34.0988C157.55 33.9624 157.659 33.8396 157.796 33.7304C157.85 33.4303 157.973 33.1847 158.164 32.9937C158.355 32.7754 158.478 32.5161 158.533 32.216C158.778 32.025 158.915 31.8067 158.942 31.5611C159.297 31.3155 159.515 30.988 159.597 30.5787C159.815 30.3604 159.992 30.1148 160.129 29.842C160.293 29.5691 160.443 29.2826 160.579 28.9824C160.907 28.7095 161.166 28.3548 161.357 27.9182C161.521 27.809 161.643 27.659 161.725 27.4679C161.807 27.2769 161.916 27.1132 162.053 26.9768C162.271 26.622 162.435 26.3355 162.544 26.1172C162.68 25.8716 162.817 25.626 162.953 25.3805C163.144 25.3805 163.267 25.3122 163.322 25.1758C163.376 25.0394 163.485 24.9848 163.649 25.0121C163.649 24.7665 163.717 24.5482 163.854 24.3572C163.908 24.3299 163.99 24.3026 164.099 24.2753C164.208 24.2207 164.263 24.1662 164.263 24.1116C164.208 23.7841 164.222 23.5931 164.304 23.5386C164.386 23.484 164.454 23.4294 164.509 23.3748C164.809 23.4294 165.013 23.4703 165.123 23.4976C165.232 23.5249 165.409 23.6204 165.655 23.7841C165.928 23.7841 166.119 23.8387 166.228 23.9479C166.337 24.057 166.46 24.1389 166.596 24.1935C166.705 24.3026 166.787 24.4118 166.842 24.5209C166.924 24.6301 167.033 24.7119 167.169 24.7665C167.387 25.0667 167.619 25.3941 167.865 25.7488C168.111 26.1036 168.342 26.431 168.561 26.7312C168.861 27.1405 169.161 27.5362 169.461 27.9182C169.789 28.2729 170.089 28.6686 170.362 29.1052C170.444 29.2416 170.594 29.4872 170.812 29.842C171.03 30.1694 171.276 30.5241 171.549 30.9062C171.822 31.2882 172.067 31.6429 172.285 31.9704C172.504 32.2705 172.654 32.4479 172.736 32.5025C172.818 32.6389 172.995 32.8982 173.268 33.2802C173.541 33.6622 173.827 34.0715 174.127 34.5081C174.455 34.9174 174.769 35.3131 175.069 35.6951C175.369 36.0771 175.574 36.3227 175.683 36.4319C175.983 36.8412 176.201 37.1823 176.338 37.4552C176.501 37.7007 176.651 37.9736 176.788 38.2738ZM167.415 45.9688C167.715 45.5595 167.947 45.1912 168.111 44.8637C168.274 44.5363 168.438 44.2088 168.602 43.8814C168.875 43.5539 169.038 43.322 169.093 43.1855C169.147 43.0491 169.216 42.9126 169.298 42.7762C169.516 42.4488 169.734 42.1213 169.952 41.7939C170.198 41.4664 170.389 41.1117 170.525 40.7297C170.689 40.6205 170.812 40.4841 170.894 40.3203C170.976 40.1566 171.098 40.0065 171.262 39.8701C171.098 39.2971 170.907 38.8605 170.689 38.5603C170.471 38.2329 170.253 37.919 170.034 37.6189C169.952 37.4824 169.871 37.346 169.789 37.2096C169.707 37.0731 169.625 36.9367 169.543 36.8003C169.434 36.7184 169.338 36.6365 169.257 36.5547C169.202 36.4728 169.134 36.3909 169.052 36.3091C168.997 36.1726 168.915 35.9953 168.806 35.777C168.697 35.6405 168.588 35.5177 168.479 35.4086C168.37 35.2994 168.274 35.163 168.192 34.9993C168.083 34.8901 167.947 34.7401 167.783 34.549C167.619 34.358 167.442 34.1534 167.251 33.9351C167.087 33.6895 166.937 33.4712 166.801 33.2802C166.664 33.0619 166.555 32.8845 166.473 32.7481C166.419 32.6116 166.364 32.5025 166.31 32.4206C166.282 32.3115 166.241 32.2023 166.187 32.0932C166.05 31.9022 165.914 31.7384 165.777 31.602C165.641 31.4383 165.505 31.2609 165.368 31.0699C165.286 31.1245 165.204 31.1654 165.123 31.1927C165.068 31.1927 165.013 31.22 164.959 31.2745C164.768 31.6293 164.549 31.9567 164.304 32.2569C164.086 32.5571 163.867 32.8845 163.649 33.2392C163.458 33.5667 163.267 33.9078 163.076 34.2625C162.885 34.59 162.694 34.9174 162.503 35.2449C162.367 35.4359 162.23 35.6269 162.094 35.8179C161.984 35.9816 161.862 36.1726 161.725 36.3909C161.589 36.582 161.466 36.7866 161.357 37.0049C161.275 37.1959 161.166 37.3869 161.029 37.578C160.811 37.8508 160.634 38.0964 160.497 38.3147C160.361 38.533 160.224 38.7922 160.088 39.0924C160.17 39.2561 160.293 39.4881 160.456 39.7882C160.647 40.0611 160.838 40.3476 161.029 40.6478C161.22 40.9207 161.384 41.1799 161.521 41.4255C161.684 41.6711 161.78 41.8348 161.807 41.9167C162.025 42.1077 162.203 42.326 162.339 42.5716C162.476 42.7899 162.653 43.0082 162.871 43.2265C162.98 43.4448 163.103 43.6358 163.24 43.7995C163.376 43.9632 163.513 44.1406 163.649 44.3316C163.785 44.5226 163.963 44.8091 164.181 45.1912C164.399 45.5459 164.618 45.9143 164.836 46.2963C165.054 46.6783 165.273 47.0331 165.491 47.3605C165.709 47.688 165.887 47.8926 166.023 47.9745C166.296 47.6743 166.514 47.3469 166.678 46.9921C166.869 46.6101 167.115 46.269 167.415 45.9688Z" fill="#BAC4D1"/>
<path d="M192.874 23.9888C193.31 23.9342 193.638 23.9752 193.856 24.1116C194.102 24.2207 194.347 24.289 194.593 24.3162C194.729 24.3435 194.866 24.3572 195.002 24.3572C195.166 24.3299 195.33 24.3162 195.493 24.3162C195.848 24.3162 196.121 24.3572 196.312 24.439C196.53 24.5209 196.749 24.6983 196.967 24.9711C197.022 25.0257 197.09 25.1076 197.172 25.2167C197.281 25.2986 197.335 25.3805 197.335 25.4623C197.335 25.6806 197.281 25.8716 197.172 26.0354C197.062 26.1991 197.008 26.431 197.008 26.7312C197.008 27.1951 197.062 27.659 197.172 28.1228C197.281 28.5594 197.349 29.0097 197.376 29.4736C197.513 31.1654 197.581 32.8709 197.581 34.59C197.608 36.2818 197.622 37.96 197.622 39.6245C197.622 39.8428 197.608 40.0475 197.581 40.2385C197.581 40.4022 197.526 40.5523 197.417 40.6887V41.2208C197.39 41.9303 197.404 42.6534 197.458 43.3902C197.513 44.0997 197.54 44.8091 197.54 45.5186C197.54 46.1462 197.499 46.7738 197.417 47.4014C197.363 48.029 197.335 48.6703 197.335 49.3252C197.335 49.9255 197.376 50.5122 197.458 51.0852C197.54 51.6583 197.581 52.245 197.581 52.8453C197.445 53.0909 197.363 53.2819 197.335 53.4183C197.308 53.5548 197.254 53.6776 197.172 53.7867C197.09 53.8413 196.994 53.8549 196.885 53.8276C196.803 53.8003 196.735 53.8276 196.68 53.9095C196.544 54.0732 196.449 54.2642 196.394 54.4825C196.339 54.7008 196.203 54.8782 195.985 55.0146C195.93 55.3967 195.78 55.6832 195.534 55.8742C195.316 56.0925 195.152 56.3654 195.043 56.6928C194.716 56.7201 194.484 56.7065 194.347 56.6519C194.238 56.5973 194.115 56.5427 193.979 56.4882C193.952 56.0243 193.952 55.6832 193.979 55.4649C194.034 55.2739 194.061 55.0692 194.061 54.8509C194.061 54.578 193.993 54.3734 193.856 54.2369C193.72 54.1005 193.624 53.9231 193.57 53.7048C193.27 53.5138 193.065 53.391 192.956 53.3365C192.847 53.2546 192.751 53.1591 192.669 53.0499C192.505 52.8316 192.369 52.5997 192.26 52.3541C192.151 52.1085 192.028 51.8766 191.892 51.6583C191.51 51.0307 191.114 50.3894 190.705 49.7345C190.322 49.0796 189.9 48.4384 189.436 47.8107C189.354 47.6743 189.258 47.5515 189.149 47.4424C189.04 47.3332 188.944 47.2104 188.863 47.074C188.399 46.3372 187.962 45.5868 187.553 44.8228C187.144 44.0587 186.666 43.3356 186.12 42.6534C185.902 42.3805 185.738 42.0804 185.629 41.7529C185.52 41.3982 185.356 41.098 185.138 40.8524C185.111 40.9889 185.097 41.139 185.097 41.3027C185.097 41.4664 185.097 41.6165 185.097 41.7529C185.097 42.6807 185.111 43.6085 185.138 44.5363C185.192 45.4367 185.22 46.3509 185.22 47.2786C185.22 47.4697 185.192 47.647 185.138 47.8107C185.111 47.9472 185.097 48.1109 185.097 48.3019C185.097 48.5748 185.111 48.834 185.138 49.0796C185.165 49.3252 185.179 49.5708 185.179 49.8164C185.179 50.1165 185.165 50.4031 185.138 50.6759C185.138 50.9488 185.124 51.2217 185.097 51.4946C185.042 51.8493 184.974 52.1904 184.892 52.5178C184.81 52.818 184.77 53.1318 184.77 53.4593C184.77 53.6503 184.783 53.8276 184.81 53.9914C184.865 54.1551 184.892 54.3052 184.892 54.4416C184.701 54.7418 184.456 54.8918 184.156 54.8918C183.883 54.8918 183.651 55.001 183.46 55.2193C183.296 55.192 183.16 55.2056 183.05 55.2602C182.969 55.3148 182.887 55.3421 182.805 55.3421C182.696 55.3421 182.6 55.3284 182.518 55.3012C182.464 55.2739 182.395 55.2602 182.314 55.2602C182.177 55.2602 182.041 55.3284 181.904 55.4649C181.768 55.6013 181.631 55.6695 181.495 55.6695C181.413 55.6695 181.263 55.615 181.045 55.5058C180.854 55.3967 180.635 55.2602 180.39 55.0965C180.172 54.9601 179.967 54.81 179.776 54.6463C179.585 54.5098 179.489 54.4007 179.489 54.3188C179.462 54.1824 179.448 53.9914 179.448 53.7458C179.448 53.4183 179.462 53.1045 179.489 52.8044C179.544 52.4769 179.599 52.1495 179.653 51.822C179.735 50.8942 179.776 49.9801 179.776 49.0796C179.776 48.1518 179.776 47.2241 179.776 46.2963C179.776 45.9143 179.776 45.5322 179.776 45.1502C179.803 44.7682 179.817 44.3862 179.817 44.0041C179.817 43.1037 179.776 42.2032 179.694 41.3027C179.639 40.3749 179.612 39.4608 179.612 38.5603C179.612 37.9327 179.639 37.3187 179.694 36.7184C179.749 36.0908 179.776 35.4768 179.776 34.8765C179.776 34.4126 179.762 33.9624 179.735 33.5258C179.708 33.0892 179.694 32.6389 179.694 32.175C179.667 31.8749 179.667 31.5611 179.694 31.2336C179.721 30.8789 179.735 30.5514 179.735 30.2513C179.735 29.8965 179.68 29.5691 179.571 29.2689C179.489 28.9415 179.448 28.6413 179.448 28.3684C179.448 28.2047 179.476 28.0546 179.53 27.9182C179.612 27.7545 179.653 27.5907 179.653 27.427C179.653 27.2087 179.612 26.9904 179.53 26.7721C179.476 26.5538 179.448 26.3355 179.448 26.1172C179.448 25.8989 179.476 25.6943 179.53 25.5033C179.585 25.3122 179.612 25.1076 179.612 24.8893C179.994 24.6983 180.335 24.6028 180.635 24.6028C180.936 24.6028 181.154 24.7119 181.29 24.9302C181.29 25.4214 181.318 25.8034 181.372 26.0763C181.427 26.3219 181.468 26.5811 181.495 26.854C181.495 27.0177 181.481 27.2087 181.454 27.427C181.454 27.6453 181.468 27.8636 181.495 28.0819C181.522 28.2729 181.577 28.4367 181.659 28.5731C181.768 28.7095 181.945 28.7777 182.191 28.7777C182.245 28.9142 182.314 29.037 182.395 29.1461C182.477 29.2553 182.532 29.3917 182.559 29.5554C182.723 29.4463 182.818 29.2962 182.846 29.1052C182.873 28.9142 182.873 28.7368 182.846 28.5731C182.982 28.6277 183.105 28.655 183.214 28.655C183.323 28.6277 183.432 28.6413 183.542 28.6959C183.596 29.0779 183.664 29.419 183.746 29.7192C183.828 29.992 183.855 30.3195 183.828 30.7015C184.374 31.1108 184.838 31.6975 185.22 32.4616C185.629 33.1983 186.011 33.8669 186.366 34.4672C186.557 34.7673 186.775 35.0539 187.021 35.3267C187.294 35.5723 187.498 35.8725 187.635 36.2272C187.853 36.3637 188.03 36.541 188.167 36.7593C188.303 36.9776 188.426 37.1959 188.535 37.4142C189.081 38.3693 189.681 39.2971 190.336 40.1975C190.991 41.098 191.673 41.9849 192.383 42.8581C192.41 42.6671 192.424 42.4897 192.424 42.326C192.424 42.135 192.424 41.9439 192.424 41.7529L192.383 38.0691C192.383 37.8508 192.369 37.6462 192.342 37.4552C192.342 37.2641 192.328 37.0595 192.301 36.8412C192.246 36.1317 192.233 35.4359 192.26 34.7537C192.287 34.0715 192.287 33.3757 192.26 32.6662C192.205 31.9294 192.164 31.179 192.137 30.415C192.137 29.6509 192.11 28.8869 192.055 28.1228C192.028 27.659 192.001 27.1951 191.973 26.7312C191.946 26.2673 191.932 25.8034 191.932 25.3395C191.932 24.7665 191.987 24.248 192.096 23.7841C192.151 23.7296 192.205 23.6886 192.26 23.6613C192.342 23.6068 192.437 23.5795 192.546 23.5795C192.71 23.5795 192.819 23.7159 192.874 23.9888Z" fill="#BAC4D1"/>
<path d="M208.632 43.7995C208.687 43.9359 208.878 44.2224 209.205 44.659C209.56 45.0956 209.956 45.5732 210.392 46.0916C210.829 46.6101 211.238 47.1149 211.62 47.6061C212.03 48.07 212.316 48.4111 212.48 48.6294C212.78 49.0114 213.067 49.3934 213.339 49.7754C213.64 50.1302 213.913 50.5122 214.158 50.9215L214.895 52.1495C215.113 52.4223 215.304 52.6543 215.468 52.8453C215.659 53.0363 215.809 53.2955 215.918 53.623C215.973 53.8413 216 53.9914 216 54.0732C216 54.2642 215.932 54.4007 215.795 54.4825C215.577 54.4825 215.454 54.5098 215.427 54.5644C215.427 54.6463 215.372 54.7145 215.263 54.769C215.154 54.8236 214.977 54.8509 214.731 54.8509C214.513 54.8782 214.335 54.8918 214.199 54.8918C213.953 54.8918 213.64 54.8782 213.258 54.8509C212.903 54.8509 212.616 54.8918 212.398 54.9737C212.343 55.001 212.262 55.0419 212.152 55.0965C212.043 55.1511 211.961 55.1784 211.907 55.1784C211.689 55.1784 211.525 55.1374 211.416 55.0556C211.334 55.001 211.211 54.9601 211.047 54.9328C210.829 54.6872 210.638 54.4416 210.474 54.196C210.338 53.9231 210.174 53.6503 209.983 53.3774C209.792 53.1864 209.601 53.0227 209.41 52.8862C209.219 52.7225 209.055 52.5451 208.919 52.3541C208.51 51.7538 208.087 51.1671 207.65 50.5941C207.213 50.021 206.763 49.4616 206.299 48.9159C206.081 48.6157 205.849 48.3429 205.603 48.0973C205.358 47.8517 205.126 47.5788 204.908 47.2786C204.689 47.0058 204.485 46.7192 204.294 46.4191C204.103 46.0916 203.912 45.7778 203.721 45.4777C203.557 45.2321 203.339 44.9183 203.066 44.5363C202.793 44.1269 202.493 43.7313 202.165 43.3492C201.838 42.9399 201.51 42.5579 201.183 42.2032C200.855 41.8484 200.583 41.5756 200.364 41.3846C200.337 41.2208 200.269 41.098 200.16 41.0162C200.05 40.907 199.928 40.8115 199.791 40.7297C199.737 40.5932 199.682 40.4704 199.628 40.3613C199.546 40.2248 199.505 40.0884 199.505 39.952C199.505 39.7609 199.546 39.5836 199.628 39.4199C199.682 39.3107 199.723 39.2152 199.75 39.1333C199.75 39.0242 199.778 38.915 199.832 38.8059C199.969 38.5057 200.146 38.2192 200.364 37.9463C200.61 37.6462 200.801 37.3324 200.937 37.0049C200.992 36.9231 201.019 36.8412 201.019 36.7593C201.019 36.6502 201.046 36.5547 201.101 36.4728C201.156 36.2545 201.265 36.0771 201.428 35.9407C201.62 35.777 201.77 35.5996 201.879 35.4086C202.015 35.1903 202.138 34.972 202.247 34.7537C202.384 34.5081 202.52 34.2489 202.656 33.976C203.066 33.2938 203.489 32.6389 203.925 32.0113C204.389 31.3564 204.853 30.7015 205.317 30.0466C205.672 29.5009 206.013 28.9824 206.34 28.4912C206.695 27.9728 207.05 27.4543 207.404 26.9358C207.595 26.6903 207.8 26.4037 208.018 26.0763C208.237 25.7488 208.469 25.4214 208.714 25.0939C208.987 24.7665 209.26 24.4663 209.533 24.1935C209.806 23.9206 210.079 23.7023 210.352 23.5386C210.761 23.5113 211.034 23.6068 211.17 23.8251C211.307 24.0161 211.511 24.1116 211.784 24.1116C212.139 24.1935 212.371 24.3026 212.48 24.439C212.589 24.5755 212.712 24.7119 212.848 24.8484C213.23 24.8484 213.53 24.9166 213.749 25.053C213.994 25.1894 214.226 25.3941 214.445 25.667C214.363 25.9671 214.24 26.24 214.076 26.4856C213.913 26.7039 213.762 26.9358 213.626 27.1814C213.408 27.2906 213.244 27.4407 213.135 27.6317C213.053 27.8227 212.917 27.9728 212.726 28.0819C212.453 28.5458 212.166 28.996 211.866 29.4326C211.566 29.842 211.266 30.2513 210.965 30.6606C210.802 30.9062 210.624 31.1245 210.433 31.3155C210.27 31.5065 210.12 31.7111 209.983 31.9294C209.929 32.0113 209.874 32.1068 209.819 32.216C209.792 32.2978 209.751 32.3797 209.697 32.4616C209.369 32.98 209.014 33.4712 208.632 33.9351C208.25 34.3717 207.896 34.8629 207.568 35.4086C207.459 35.5996 207.364 35.8043 207.282 36.0226C207.227 36.2136 207.145 36.4046 207.036 36.5956C206.927 36.7593 206.763 36.9776 206.545 37.2505C206.354 37.5234 206.163 37.8235 205.972 38.151C205.781 38.4512 205.603 38.7513 205.44 39.0515C205.303 39.3243 205.235 39.5563 205.235 39.7473C205.262 39.8837 205.426 40.1566 205.726 40.5659C206.054 40.948 206.408 41.3709 206.79 41.8348C207.2 42.2714 207.582 42.6943 207.937 43.1037C208.291 43.4857 208.523 43.7176 208.632 43.7995ZM211.334 36.35C211.525 36.7593 211.73 37.1141 211.948 37.4142C212.03 37.5234 212.125 37.6189 212.234 37.7007C212.343 37.7826 212.425 37.8918 212.48 38.0282C212.534 38.0828 212.589 38.2056 212.644 38.3966C212.698 38.5603 212.753 38.6831 212.807 38.765C212.889 38.9833 213.053 39.2288 213.299 39.5017C213.544 39.7746 213.667 40.0202 213.667 40.2385C213.667 40.3749 213.64 40.525 213.585 40.6887C213.53 40.8524 213.49 41.0025 213.462 41.139C213.435 41.3027 213.421 41.4801 213.421 41.6711C213.421 41.8348 213.367 41.9849 213.258 42.1213C213.121 42.2578 212.971 42.3396 212.807 42.3669C212.644 42.3942 212.494 42.4624 212.357 42.5716C212.303 42.6261 212.221 42.7216 212.112 42.8581C212.002 42.9945 211.893 43.1446 211.784 43.3083C211.675 43.472 211.566 43.6358 211.457 43.7995C211.375 43.9359 211.334 44.0451 211.334 44.1269C211.006 44.1542 210.788 44.1679 210.679 44.1679C210.597 44.1406 210.502 44.1406 210.392 44.1679C210.256 44.0314 210.106 43.9223 209.942 43.8404C209.806 43.7313 209.628 43.6358 209.41 43.5539C209.355 43.3356 209.233 43.09 209.042 42.8171C208.851 42.517 208.687 42.2714 208.551 42.0804L208.264 41.712C207.855 41.139 207.473 40.5932 207.118 40.0748C206.79 39.529 206.545 38.9287 206.381 38.2738C206.9 37.8918 207.295 37.6052 207.568 37.4142C207.868 37.2232 208.182 37.0458 208.51 36.8821C208.837 36.7184 209.151 36.5683 209.451 36.4319C209.778 36.2682 210.079 36.0771 210.352 35.8588C210.57 35.8588 210.72 35.8725 210.802 35.8998C210.884 35.9271 210.938 35.9543 210.965 35.9816C210.993 36.0089 211.02 36.0635 211.047 36.1454C211.102 36.1999 211.197 36.2682 211.334 36.35Z" fill="#BAC4D1"/>
</svg>
