<svg width="272" height="81" viewBox="0 0 272 81" fill="none" xmlns="http://www.w3.org/2000/svg">
<path d="M64.3467 24.3398C65.4906 24.3398 66.4736 24.4947 67.2958 24.8045C68.0584 25.1024 68.7733 25.2514 69.4406 25.2514C70.1198 25.2514 70.4593 25.0071 70.4593 24.5186H70.8168L71.1385 30.0235H70.7811C70.7811 29.6422 70.6917 29.1894 70.513 28.6651C70.3342 28.1409 70.0363 27.563 69.6193 26.9314C69.2023 26.2999 68.541 25.7697 67.6354 25.3407C66.7298 24.9118 65.6574 24.6973 64.4182 24.6973C61.9875 24.6973 60.7721 25.5373 60.7721 27.2174C60.7721 28.7783 61.4811 30.1546 62.899 31.3461L69.7265 37.1012C71.776 38.829 72.8007 40.795 72.8007 42.9994C72.8007 44.8939 71.7879 46.4072 69.7623 47.5391C68.0465 48.5162 65.866 49.0047 63.2207 49.0047C61.4334 49.0047 59.8963 48.5758 58.6095 47.7179C58.252 47.4796 57.9184 47.3604 57.6086 47.3604C57.0962 47.3604 56.7149 47.6464 56.4647 48.2183C56.3932 48.3851 56.3575 48.5877 56.3575 48.826H56L56.1072 43.2496H56.4647C56.4647 43.5356 56.5243 43.8751 56.6434 44.2684C56.9413 45.2573 57.5728 46.1986 58.538 47.0923C59.0146 47.5332 59.664 47.9025 60.4861 48.2004C61.3083 48.4983 62.2198 48.6473 63.2207 48.6473C64.5314 48.6473 65.5859 48.3196 66.3843 47.6642C67.2064 46.9851 67.6175 46.1569 67.6175 45.1799C67.6175 43.619 67.1171 42.4155 66.1162 41.5695L59.2887 35.8144C57.1796 34.039 56.1251 32.061 56.1251 29.8805C56.1251 28.1885 56.989 26.8123 58.7167 25.7518C60.2419 24.8105 62.1186 24.3398 64.3467 24.3398Z" fill="#BAC4D1"/>
<path d="M89.0474 46.002L89.0652 39.3532H82.6309V45.9663C82.6309 47.6345 83.5842 48.4685 85.4906 48.4685V48.826H74.0518V48.4685C75.9583 48.4685 76.9115 47.6345 76.9115 45.9663V33.0977C76.9115 31.4295 75.9583 30.5954 74.0518 30.5954V30.238H81.2011C82.1543 30.238 82.6309 31.1912 82.6309 33.0977V38.9958H89.0652V33.0977C89.0652 31.4295 88.112 30.5954 86.2055 30.5954V30.238H97.6443V30.5954C95.7379 30.5954 94.7846 31.4295 94.7846 33.0977V45.9663C94.7846 47.6345 95.7379 48.4685 97.6443 48.4685L97.6265 48.826H90.4772C89.524 48.826 89.0474 47.8847 89.0474 46.002Z" fill="#BAC4D1"/>
<path d="M108.726 48.6473C110.537 48.6473 111.704 48.0157 112.229 46.7527C112.753 45.4658 113.015 43.0589 113.015 39.532C113.015 36.005 112.753 33.5981 112.229 32.3112C111.704 31.0482 110.537 30.4167 108.726 30.4167C106.676 30.4167 105.425 31.2031 104.972 32.7759C104.615 34.039 104.436 36.291 104.436 39.532C104.436 42.773 104.615 45.025 104.972 46.288C105.425 47.8608 106.676 48.6473 108.726 48.6473ZM116.161 46.5382C114.421 48.1826 111.943 49.0047 108.726 49.0047C105.508 49.0047 103.03 48.1826 101.29 46.5382C99.5746 44.8939 98.7167 42.5585 98.7167 39.532C98.7167 36.5293 99.5865 34.1939 101.326 32.5257C103.066 30.8814 105.532 30.0592 108.726 30.0592C111.919 30.0592 114.385 30.8814 116.125 32.5257C117.865 34.1939 118.735 36.5293 118.735 39.532C118.735 42.5585 117.877 44.8939 116.161 46.5382Z" fill="#BAC4D1"/>
<path d="M119.45 30.238H130.888C133.867 30.238 136.197 30.8278 137.877 32.0074C139.89 33.4253 140.897 35.2186 140.897 37.3872C140.897 39.5558 139.89 41.2299 137.877 42.4095C136.268 43.3509 133.939 43.8215 130.888 43.8215H128.029V45.9663C128.029 47.6345 128.982 48.4685 130.888 48.4685V48.826H119.45V48.4685C121.356 48.4685 122.309 47.6345 122.309 45.9663V32.7759C122.238 31.3223 121.284 30.5954 119.45 30.5954V30.238ZM128.029 30.5954V43.4641H130.888C133.748 43.4641 135.178 41.4384 135.178 37.3872C135.178 32.8594 133.748 30.5954 130.888 30.5954H128.029Z" fill="#BAC4D1"/>
<path d="M145.794 32.4364C145.175 31.2091 144.15 30.5954 142.72 30.5954V30.238H149.619C150.644 30.238 151.442 31.1197 152.014 32.8832L156.304 46.0378C156.828 47.6583 157.948 48.4685 159.664 48.4685V48.826H148.225V48.4685C149.774 48.4685 150.549 48.0634 150.549 47.2532C150.549 46.9791 150.477 46.6216 150.334 46.1808L148.744 41.3193H143.31L141.719 46.1808C141.576 46.6216 141.505 46.9672 141.505 47.2174C141.505 48.0515 142.375 48.4685 144.114 48.4685V48.826H138.038V48.4685C139.73 48.4685 140.838 47.6583 141.362 46.0378L145.794 32.4364ZM148.636 40.9618L146.045 33.0262L146.027 32.9904L143.417 40.9618H148.636Z" fill="#BAC4D1"/>
<path d="M178.091 48.826H173.891L164.132 33.0977V45.9663C164.132 47.6345 165.085 48.4685 166.992 48.4685V48.826H160.915V48.4685C162.822 48.4685 163.775 47.6345 163.775 45.9663V33.0977C163.775 31.4295 162.822 30.5954 160.915 30.5954V30.238H169.083L177.734 44.0717V33.0977C177.734 31.4295 176.78 30.5954 174.874 30.5954V30.238H180.951V30.5954C179.044 30.5954 178.091 31.4295 178.091 33.0977V48.826Z" fill="#BAC4D1"/>
<path d="M182.22 30.238H193.659V30.5954C191.752 30.5954 190.799 31.4295 190.799 33.0977V45.9663C190.799 47.6345 191.752 48.4685 193.659 48.4685V48.826H182.22V48.4685C184.126 48.4685 185.08 47.6345 185.08 45.9663V33.0977C185.08 31.4295 184.126 30.5954 182.22 30.5954V30.238Z" fill="#BAC4D1"/>
<path d="M202.13 32.4364C201.511 31.2091 200.486 30.5954 199.056 30.5954V30.238H205.955C206.98 30.238 207.778 31.1197 208.35 32.8832L212.64 46.0378C213.164 47.6583 214.284 48.4685 216 48.4685V48.826H204.561V48.4685C206.11 48.4685 206.885 48.0634 206.885 47.2532C206.885 46.9791 206.813 46.6216 206.67 46.1808L205.08 41.3193H199.646L198.055 46.1808C197.912 46.6216 197.841 46.9672 197.841 47.2174C197.841 48.0515 198.711 48.4685 200.45 48.4685V48.826H194.374V48.4685C196.066 48.4685 197.174 47.6583 197.698 46.0378L202.13 32.4364ZM204.972 40.9618L202.381 33.0262L202.363 32.9904L199.753 40.9618H204.972Z" fill="#BAC4D1"/>
</svg>
