<svg width="272" height="81" viewBox="0 0 272 81" fill="none" xmlns="http://www.w3.org/2000/svg">
<path d="M92.7117 35.3462C92.7117 34.1722 92.6316 33.2029 92.4716 32.438C92.3115 31.6732 92.1336 31.0418 91.938 30.5438C91.7601 30.028 91.5911 29.61 91.431 29.2898C91.271 28.9519 91.1909 28.6406 91.1909 28.356C91.1909 28.0892 91.2976 27.8669 91.5111 27.689C91.7245 27.5111 91.9735 27.36 92.2581 27.2354C92.5605 27.1109 92.8629 27.022 93.1652 26.9686C93.4854 26.9153 93.7433 26.8886 93.939 26.8886C94.4548 26.8886 94.8283 26.9598 95.0595 27.102C95.2908 27.2443 95.4775 27.52 95.6198 27.9291C95.7799 28.4449 95.8866 29.1297 95.94 29.9835C96.0111 30.8195 96.0467 31.7177 96.0467 32.6782C96.0467 34.0477 95.9667 35.5507 95.8066 37.1871C95.6465 38.8235 95.3886 40.4687 95.0329 42.1229C94.6949 43.777 94.2502 45.3778 93.6989 46.9253C93.1652 48.4727 92.516 49.8512 91.7512 51.0607C90.9864 52.2524 90.1059 53.2129 89.1099 53.9421C88.1138 54.6536 86.9844 55.0093 85.7215 55.0093C84.7255 55.0093 83.8272 54.8137 83.0268 54.4224C82.2442 54.0133 81.5417 53.4619 80.9191 52.7682C80.2966 52.0745 79.7452 51.2652 79.265 50.3403C78.8025 49.3976 78.3934 48.3927 78.0377 47.3255C77.6286 48.4105 77.1572 49.4243 76.6236 50.367C76.09 51.2919 75.4942 52.1012 74.8361 52.7949C74.1958 53.4886 73.4843 54.0311 72.7017 54.4224C71.9191 54.8137 71.0742 55.0093 70.1671 55.0093C69.0465 55.0093 68.0505 54.7692 67.1789 54.289C66.3252 53.7909 65.5692 53.1239 64.9111 52.288C64.253 51.4342 63.6838 50.447 63.2036 49.3265C62.7234 48.2059 62.3054 47.0231 61.9496 45.778C61.6117 44.533 61.3271 43.2523 61.0959 41.9361C60.8647 40.6199 60.669 39.3482 60.5089 38.1209C60.3488 36.8936 60.2154 35.7464 60.1087 34.6792C60.002 33.612 59.8953 32.6871 59.7886 31.9044C59.6641 31.193 59.4773 30.6416 59.2283 30.2503C58.9971 29.859 58.5969 29.6633 58.0277 29.6633C57.7253 29.6633 57.4674 29.7167 57.254 29.8234C57.0405 29.9301 56.8093 30.0813 56.5603 30.277L56 29.61C56.4091 29.272 56.8627 28.943 57.3607 28.6228C57.8765 28.2849 58.4279 27.9914 59.0148 27.7424C59.6018 27.4934 60.2332 27.2888 60.9091 27.1287C61.585 26.9686 62.2965 26.8886 63.0435 26.8886C64.1107 26.8886 64.9734 27.0754 65.6315 27.4489C66.2896 27.8046 66.8054 28.2582 67.1789 28.8096C67.5702 29.3432 67.8459 29.9212 68.006 30.5438C68.1661 31.1663 68.2817 31.7266 68.3528 32.2246C68.673 34.9104 68.9843 37.276 69.2866 39.3215C69.6068 41.367 69.9448 43.0834 70.3005 44.4707C70.6562 45.8403 71.0386 46.8808 71.4477 47.5923C71.8746 48.286 72.3726 48.6328 72.9418 48.6328C73.3153 48.6328 73.68 48.4727 74.0357 48.1526C74.3914 47.8324 74.7294 47.3877 75.0495 46.8186C75.3697 46.2494 75.6721 45.5646 75.9566 44.7642C76.2412 43.946 76.4902 43.0478 76.7037 42.0695C76.5258 41.0913 76.3746 40.1219 76.2501 39.1614C76.1256 38.2009 76.01 37.2849 75.9033 36.4134C75.8144 35.524 75.7254 34.697 75.6365 33.9321C75.5476 33.1673 75.4497 32.4914 75.343 31.9044C75.0762 30.2325 75.2274 28.9785 75.7966 28.1426C76.3835 27.3066 77.5486 26.8886 79.2916 26.8886C80.0565 26.8886 80.6968 26.9598 81.2126 27.102C81.7462 27.2266 82.182 27.4756 82.5199 27.8491C82.8757 28.2048 83.1602 28.7028 83.3737 29.3432C83.5871 29.9657 83.7561 30.7661 83.8806 31.7444C84.2186 34.4124 84.5476 36.7958 84.8678 38.8946C85.1879 40.9934 85.5259 42.7632 85.8816 44.2039C86.2373 45.6446 86.6198 46.7474 87.0288 47.5122C87.4557 48.2593 87.9538 48.6328 88.5229 48.6328C89.1277 48.6328 89.688 48.2593 90.2038 47.5122C90.7196 46.7652 91.1642 45.778 91.5378 44.5508C91.9113 43.3235 92.1959 41.9094 92.3915 40.3086C92.605 38.7078 92.7117 37.0537 92.7117 35.3462Z" fill="#BAC4D1"/>
<path d="M99.5418 40.9223C99.5418 38.5922 99.8797 36.5557 100.556 34.8126C101.232 33.0517 102.13 31.5843 103.25 30.4104C104.389 29.2364 105.705 28.356 107.199 27.769C108.693 27.1821 110.258 26.8886 111.895 26.8886C113.531 26.8886 115.096 27.1643 116.59 27.7157C118.084 28.2493 119.392 29.0764 120.512 30.1969C121.651 31.3175 122.558 32.7404 123.234 34.4657C123.91 36.1732 124.247 38.2009 124.247 40.5488C124.247 42.8788 123.91 44.9421 123.234 46.7385C122.558 48.535 121.651 50.0468 120.512 51.2741C119.392 52.5014 118.084 53.4352 116.59 54.0755C115.096 54.6981 113.531 55.0093 111.895 55.0093C110.258 55.0093 108.693 54.7159 107.199 54.1289C105.705 53.5241 104.389 52.6348 103.25 51.4609C102.13 50.287 101.232 48.8196 100.556 47.0587C99.8797 45.2978 99.5418 43.2523 99.5418 40.9223ZM115.95 40.6555C115.95 39.2326 115.897 37.863 115.79 36.5468C115.701 35.2128 115.514 34.03 115.23 32.9983C114.945 31.9667 114.536 31.1485 114.002 30.5438C113.469 29.9212 112.766 29.61 111.895 29.61C111.023 29.61 110.32 29.939 109.787 30.5971C109.253 31.2374 108.844 32.0912 108.56 33.1584C108.275 34.2078 108.088 35.4084 107.999 36.7602C107.91 38.112 107.866 39.4994 107.866 40.9223C107.866 42.3452 107.91 43.7415 107.999 45.111C108.088 46.4628 108.275 47.6723 108.56 48.7395C108.844 49.8067 109.253 50.6694 109.787 51.3275C110.32 51.9678 111.023 52.288 111.895 52.288C112.766 52.288 113.469 51.95 114.002 51.2741C114.536 50.5982 114.945 49.7089 115.23 48.6061C115.514 47.5034 115.701 46.2583 115.79 44.8709C115.897 43.4836 115.95 42.0784 115.95 40.6555Z" fill="#BAC4D1"/>
<path d="M142.417 14.9093C141.919 14.9093 141.447 15.016 141.003 15.2294C140.558 15.4429 140.167 15.7897 139.829 16.27C139.508 16.7324 139.251 17.3283 139.055 18.0575C138.859 18.7868 138.761 19.6672 138.761 20.6988V27.2621H144.604V29.1831H138.761V50.2069C138.761 52.6259 138.441 54.8581 137.801 56.9036C137.178 58.9491 136.227 60.71 134.946 62.1863C133.666 63.6803 132.065 64.8454 130.144 65.6813C128.223 66.5173 125.982 66.9353 123.42 66.9353C122.513 66.9353 121.642 66.8553 120.806 66.6952C119.97 66.5529 119.232 66.3483 118.591 66.0815C117.951 65.8147 117.444 65.4946 117.071 65.1211C116.679 64.7653 116.484 64.3651 116.484 63.9205C116.484 63.6003 116.528 63.2712 116.617 62.9333C116.706 62.6131 116.839 62.3197 117.017 62.0529C117.195 61.7861 117.417 61.5637 117.684 61.3859C117.933 61.2258 118.227 61.1457 118.565 61.1457C118.76 61.1457 118.938 61.2436 119.098 61.4392C119.241 61.6349 119.392 61.875 119.552 62.1596C119.712 62.4442 119.899 62.7554 120.112 63.0934C120.308 63.4491 120.566 63.7693 120.886 64.0539C121.206 64.3384 121.606 64.5786 122.086 64.7742C122.549 64.9699 123.118 65.0677 123.794 65.0677C124.701 65.0677 125.501 64.8809 126.195 64.5074C126.889 64.1517 127.485 63.6537 127.983 63.0133C128.481 62.373 128.899 61.6171 129.237 60.7455C129.575 59.874 129.841 58.9402 130.037 57.9441C130.233 56.9481 130.366 55.9076 130.437 54.8226C130.526 53.7376 130.571 52.6526 130.571 51.5676V29.1831H125.661V27.2621H130.571V24.1406C130.571 22.5753 130.757 21.2147 131.131 20.0585C131.522 18.8846 132.029 17.8885 132.652 17.0704C133.292 16.2522 134.012 15.5852 134.813 15.0694C135.613 14.5535 136.422 14.1445 137.241 13.8421C138.077 13.5397 138.886 13.3352 139.669 13.2284C140.451 13.1217 141.136 13.0684 141.723 13.0684C142.986 13.0684 144.106 13.1662 145.085 13.3618C146.063 13.5397 146.881 13.7887 147.539 14.1089C148.197 14.4113 148.695 14.767 149.033 15.1761C149.371 15.5852 149.54 16.0032 149.54 16.43C149.54 16.7502 149.487 17.0793 149.38 17.4172C149.291 17.7374 149.158 18.0397 148.98 18.3243C148.802 18.5911 148.58 18.8135 148.313 18.9913C148.064 19.1514 147.779 19.2314 147.459 19.2314C147.263 19.2314 147.086 19.1247 146.925 18.9113C146.765 18.6978 146.596 18.431 146.419 18.1109C146.241 17.7907 146.045 17.4439 145.832 17.0704C145.618 16.6968 145.351 16.35 145.031 16.0298C144.729 15.7097 144.364 15.4429 143.937 15.2294C143.51 15.016 143.004 14.9093 142.417 14.9093Z" fill="#BAC4D1"/>
<path d="M158.505 40.7622C158.505 40.3175 158.362 39.9796 158.078 39.7484C157.793 39.5171 157.428 39.4015 156.984 39.4015C156.361 39.4015 155.765 39.5438 155.196 39.8284C154.645 40.113 154.156 40.531 153.729 41.0824C153.302 41.6338 152.964 42.3185 152.715 43.1367C152.466 43.9371 152.342 44.8709 152.342 45.9381C152.342 46.9698 152.413 47.8235 152.555 48.4994C152.715 49.1753 152.92 49.7178 153.169 50.1269C153.435 50.5182 153.738 50.7939 154.076 50.954C154.414 51.1141 154.769 51.1941 155.143 51.1941C155.605 51.1941 156.041 51.0785 156.45 50.8473C156.859 50.5982 157.215 50.287 157.517 49.9134C157.82 49.5399 158.06 49.1219 158.238 48.6595C158.416 48.197 158.505 47.7346 158.505 47.2721V40.7622ZM154.262 29.0764C153.658 29.0764 153.097 29.1475 152.582 29.2898C152.066 29.4321 151.621 29.61 151.248 29.8234C150.874 30.0368 150.581 30.277 150.367 30.5438C150.154 30.7928 150.047 31.0329 150.047 31.2641C150.047 31.5309 150.18 31.7266 150.447 31.8511C150.732 31.9578 151.043 32.0912 151.381 32.2513C151.719 32.3936 152.021 32.607 152.288 32.8916C152.573 33.1584 152.715 33.5764 152.715 34.1456C152.715 34.5191 152.635 34.8659 152.475 35.1861C152.333 35.4885 152.128 35.7642 151.861 36.0132C151.612 36.2444 151.31 36.4312 150.954 36.5734C150.616 36.698 150.26 36.7602 149.887 36.7602C148.891 36.7602 148.082 36.4223 147.459 35.7464C146.854 35.0705 146.552 34.1722 146.552 33.0517C146.552 31.9667 146.837 31.0418 147.406 30.277C147.975 29.4944 148.713 28.854 149.62 28.356C150.545 27.858 151.586 27.4934 152.742 27.2621C153.898 27.0131 155.054 26.8886 156.21 26.8886C157.597 26.8886 158.923 27.0398 160.185 27.3422C161.448 27.6445 162.56 28.1248 163.52 28.7829C164.499 29.441 165.272 30.277 165.842 31.2908C166.429 32.3046 166.722 33.5319 166.722 34.9726V50.0468C166.722 50.2069 166.731 50.3848 166.749 50.5804C166.766 50.7761 166.811 50.954 166.882 51.1141C166.953 51.2741 167.06 51.4075 167.202 51.5143C167.345 51.621 167.549 51.6743 167.816 51.6743C168.136 51.6743 168.43 51.5587 168.696 51.3275C168.981 51.0785 169.23 50.8295 169.443 50.5804L170.11 51.1407C169.844 51.5143 169.523 51.9233 169.15 52.368C168.776 52.8127 168.323 53.2307 167.789 53.622C167.256 54.0133 166.633 54.3423 165.922 54.6091C165.21 54.8759 164.401 55.0093 163.494 55.0093C162.373 55.0093 161.377 54.6803 160.506 54.0222C159.634 53.3463 159.065 52.3147 158.798 50.9273C158.229 51.6921 157.633 52.3324 157.011 52.8483C156.406 53.3641 155.783 53.7821 155.143 54.1022C154.503 54.4224 153.853 54.6536 153.195 54.7959C152.555 54.9382 151.906 55.0093 151.248 55.0093C150.394 55.0093 149.567 54.8759 148.766 54.6091C147.966 54.3423 147.246 53.9243 146.605 53.3552C145.983 52.7682 145.476 52.0123 145.085 51.0874C144.711 50.1625 144.524 49.033 144.524 47.699C144.524 46.0804 144.844 44.7553 145.485 43.7237C146.125 42.6921 146.961 41.8294 147.993 41.1357C149.042 40.4243 150.225 39.8195 151.541 39.3215C152.875 38.8235 154.236 38.2988 155.623 37.7474C156.655 37.3383 157.402 36.7335 157.864 35.9331C158.345 35.1149 158.585 34.279 158.585 33.4252C158.585 32.109 158.193 31.0596 157.411 30.277C156.646 29.4766 155.596 29.0764 154.262 29.0764Z" fill="#BAC4D1"/>
<path d="M190.654 36.1199C190.103 36.1199 189.64 36.0398 189.267 35.8798C188.893 35.7019 188.591 35.4707 188.36 35.1861C188.128 34.9015 187.959 34.5902 187.853 34.2523C187.746 33.8966 187.693 33.5319 187.693 33.1584C187.693 32.6782 187.719 32.2157 187.773 31.771C187.844 31.3264 187.853 30.9262 187.799 30.5704C187.764 30.2147 187.63 29.9301 187.399 29.7167C187.168 29.5032 186.759 29.3965 186.172 29.3965C185.549 29.3965 184.891 29.5744 184.197 29.9301C183.504 30.2859 182.872 30.8461 182.303 31.611C181.734 32.3758 181.263 33.363 180.889 34.5724C180.516 35.7642 180.329 37.2049 180.329 38.8946C180.329 40.7622 180.498 42.4697 180.836 44.0172C181.191 45.5468 181.716 46.8541 182.41 47.9391C183.104 49.0241 183.966 49.869 184.998 50.4737C186.029 51.0607 187.239 51.3542 188.626 51.3542C189.249 51.3542 189.836 51.283 190.387 51.1407C190.956 50.9984 191.49 50.8028 191.988 50.5538C192.486 50.3048 192.957 50.0202 193.402 49.7C193.864 49.3621 194.309 49.0063 194.736 48.6328L195.403 49.2731C194.994 49.8245 194.469 50.4293 193.829 51.0874C193.189 51.7455 192.415 52.368 191.508 52.955C190.601 53.5241 189.542 54.0044 188.333 54.3957C187.123 54.7692 185.745 54.956 184.197 54.956C182.65 54.956 181.138 54.6625 179.662 54.0755C178.203 53.4708 176.905 52.5992 175.767 51.4609C174.628 50.3225 173.712 48.9441 173.019 47.3255C172.343 45.6891 172.005 43.8304 172.005 41.7494C172.005 40.1308 172.209 38.6456 172.618 37.2938C173.027 35.9242 173.579 34.6881 174.272 33.5853C174.984 32.4825 175.802 31.5131 176.727 30.6772C177.67 29.8412 178.657 29.1475 179.689 28.5961C180.72 28.0269 181.77 27.6001 182.837 27.3155C183.922 27.0309 184.962 26.8886 185.958 26.8886C187.275 26.8886 188.422 27.0398 189.4 27.3422C190.378 27.6445 191.188 28.0447 191.828 28.5428C192.486 29.0408 192.975 29.6189 193.295 30.277C193.615 30.9173 193.776 31.5843 193.776 32.278C193.776 32.7938 193.704 33.2918 193.562 33.772C193.438 34.2345 193.242 34.6436 192.975 34.9993C192.726 35.3373 192.406 35.613 192.015 35.8264C191.623 36.0221 191.17 36.1199 190.654 36.1199Z" fill="#BAC4D1"/>
<path d="M207.649 29.1831V48.8996C207.649 49.8423 207.827 50.5004 208.183 50.8739C208.538 51.2297 209.028 51.4075 209.65 51.4075C210.13 51.4075 210.557 51.2741 210.931 51.0073C211.304 50.7405 211.624 50.4382 211.891 50.1002C212.211 49.7267 212.487 49.2909 212.718 48.7929L213.545 49.1664C213.279 49.7356 212.958 50.3581 212.585 51.034C212.229 51.7099 211.749 52.3413 211.144 52.9283C210.539 53.4975 209.775 53.9777 208.85 54.369C207.943 54.7603 206.795 54.956 205.408 54.956C204.625 54.956 203.869 54.8404 203.14 54.6091C202.429 54.3779 201.788 54.0133 201.219 53.5153C200.668 53.0172 200.223 52.3947 199.885 51.6477C199.547 50.9006 199.378 50.0024 199.378 48.953V29.1831H196.39V27.2621C196.888 27.2621 197.582 27.1376 198.471 26.8886C199.361 26.6218 200.268 26.186 201.193 25.5813C202.135 24.9765 203.007 24.1672 203.807 23.1534C204.608 22.1396 205.177 20.8856 205.515 19.3915H207.649V27.2621H211.998C213.421 27.2621 214.132 27.022 214.132 26.5418C214.132 26.3639 214.043 26.2483 213.866 26.1949C213.688 26.1238 213.483 26.0437 213.252 25.9548C213.039 25.8481 212.843 25.7058 212.665 25.5279C212.487 25.3501 212.398 25.0566 212.398 24.6475C212.398 24.1495 212.549 23.7581 212.852 23.4736C213.172 23.189 213.581 23.0467 214.079 23.0467C214.399 23.0467 214.675 23.1178 214.906 23.2601C215.155 23.3846 215.36 23.5625 215.52 23.7937C215.68 24.0072 215.795 24.2562 215.867 24.5408C215.956 24.8253 216 25.1099 216 25.3945C216 26.5507 215.662 27.4756 214.986 28.1692C214.328 28.8451 213.261 29.1831 211.785 29.1831H207.649Z" fill="#BAC4D1"/>
</svg>
