<svg width="272" height="81" viewBox="0 0 272 81" fill="none" xmlns="http://www.w3.org/2000/svg">
<path d="M56 29.4299V23.1562H65.2478V29.4299H56ZM56 56.848V32.3111H65.2478V56.848H56Z" fill="#BAC4D1"/>
<path d="M99.2652 56.848V45.3231C99.2652 43.8979 99.3116 42.4418 99.4046 40.9548C99.5285 39.4367 99.6524 38.1665 99.7763 37.1441C99.9003 36.1217 99.9777 35.4711 100.009 35.1923H99.8228L93.921 56.848H85.8814L79.9331 35.2388H79.7472C79.7782 35.5176 79.8556 36.1682 79.9796 37.1906C80.1345 38.182 80.2739 39.4367 80.3978 40.9548C80.5217 42.4418 80.5837 43.8979 80.5837 45.3231V56.848H71.15V24.8757H85.6491L90.4821 43.3248H90.668L95.4545 24.8757H109.442V56.848H99.2652Z" fill="#BAC4D1"/>
<path d="M137.108 56.848L135.761 52.3402H124.561L123.213 56.848H112.711L124.375 24.8757H136.318L147.983 56.848H137.108ZM126.699 45.1837H133.623L130.277 33.7982H130.091L126.699 45.1837Z" fill="#BAC4D1"/>
<path d="M165.703 24.8757C176.887 24.8757 182.479 30.2044 182.479 40.8618C182.479 51.5192 176.887 56.848 165.703 56.848H151.855V24.8757H165.703ZM162.125 49.1802H165.517C169.824 49.1802 171.977 46.8721 171.977 42.256V39.4677C171.977 34.8515 169.824 32.5435 165.517 32.5435H162.125V49.1802Z" fill="#BAC4D1"/>
<path d="M188.024 24.8757H215.675V32.5435H198.294V36.9582H213.165V44.3007H198.294V49.1802H216V56.848H188.024V24.8757Z" fill="#BAC4D1"/>
</svg>
