<svg width="272" height="80" viewBox="0 0 272 80" fill="none" xmlns="http://www.w3.org/2000/svg">
<path d="M66.7145 37.0732C66.6189 36.8533 66.485 36.6285 66.3129 36.3991C66.1503 36.1696 65.9591 35.9592 65.7391 35.7679C65.5192 35.5767 65.2801 35.4237 65.022 35.309C64.7638 35.1846 64.4913 35.1225 64.2044 35.1225C63.8123 35.1225 63.4442 35.2851 63.1 35.6102C62.7557 35.9353 62.4545 36.3704 62.1963 36.9154C61.9381 37.4509 61.7326 38.0677 61.5796 38.7657C61.4361 39.4542 61.3644 40.1714 61.3644 40.9172C61.3644 41.3762 61.4027 41.8113 61.4792 42.2225C61.5652 42.6241 61.6943 42.9779 61.8664 43.2839C62.0385 43.5898 62.2585 43.8337 62.5262 44.0154C62.8035 44.1971 63.1334 44.2879 63.5159 44.2879C64.0896 44.2879 64.6156 44.111 65.0937 43.7572C65.5718 43.3938 65.9782 42.9253 66.3129 42.3515C66.3224 42.1507 66.3368 41.9117 66.3559 41.6344C66.375 41.3571 66.3989 41.0224 66.4276 40.6303C66.4563 40.2287 66.4898 39.7602 66.528 39.2247C66.5758 38.6796 66.6332 38.0342 66.7001 37.2883L66.7145 37.0732ZM71.4621 45.7366C71.3665 46.6832 71.1514 47.5677 70.8167 48.3901C70.482 49.2124 70.0565 49.9631 69.5401 50.642C69.0333 51.3305 68.45 51.9425 67.7902 52.4779C67.14 53.023 66.4467 53.482 65.7104 53.8549C64.9837 54.2278 64.2331 54.5099 63.4585 54.7012C62.684 54.902 61.919 55.0024 61.1636 55.0024C60.762 55.0024 60.3508 54.988 59.9301 54.9593C59.5093 54.9307 59.0982 54.8733 58.6965 54.7872C58.2949 54.7107 57.9124 54.596 57.5491 54.443C57.1857 54.2995 56.8606 54.1131 56.5737 53.8836V53.8692C56.5737 53.8214 56.6072 53.6541 56.6741 53.3672C56.7506 53.0804 56.8367 52.7409 56.9323 52.3489C57.0375 51.9664 57.1427 51.5695 57.2479 51.1584C57.3626 50.7472 57.4582 50.3934 57.5347 50.0969C57.573 49.9631 57.6112 49.8722 57.6495 49.8244C57.6877 49.7766 57.7308 49.7527 57.7786 49.7527C57.8359 49.7527 57.8694 49.7575 57.879 49.767C58.1563 49.9487 58.4145 50.0969 58.6535 50.2117C58.9021 50.336 59.1603 50.4316 59.4281 50.4986C59.7054 50.5751 60.0066 50.6277 60.3317 50.6563C60.6568 50.685 61.0345 50.6994 61.4648 50.6994C62.1342 50.6994 62.727 50.5703 63.2434 50.3121C63.7597 50.0539 64.2044 49.7192 64.5773 49.3081C64.9502 48.8969 65.2467 48.4427 65.4666 47.9454C65.6961 47.4578 65.8539 46.9749 65.9399 46.4968C65.2515 46.9558 64.5534 47.3287 63.8458 47.6155C63.1382 47.9024 62.4258 48.0458 61.7087 48.0458C60.7237 48.0458 59.8727 47.845 59.1555 47.4434C58.4384 47.0514 57.8455 46.5207 57.377 45.8513C56.9084 45.182 56.5594 44.417 56.3299 43.5564C56.11 42.6862 56 41.7778 56 40.8311C56 40.0853 56.0669 39.3347 56.2008 38.5792C56.3442 37.8143 56.5498 37.078 56.8176 36.3704C57.0949 35.6628 57.4343 35.003 57.8359 34.391C58.2376 33.7694 58.7013 33.2292 59.2273 32.7702C59.7532 32.3112 60.3365 31.9526 60.9771 31.6944C61.6178 31.4267 62.3159 31.2928 63.0713 31.2928C63.8936 31.2928 64.6538 31.4745 65.3519 31.8379C66.0595 32.2012 66.7001 32.6507 67.2739 33.1861C67.293 33.014 67.3073 32.8802 67.3169 32.7845C67.3265 32.6793 67.3504 32.5981 67.3886 32.5407C67.4269 32.4833 67.489 32.4403 67.5751 32.4116C67.6707 32.3829 67.8046 32.3494 67.9767 32.3112C68.0819 32.2921 68.2731 32.2538 68.5504 32.1965C68.8277 32.1295 69.1576 32.053 69.5401 31.967C69.9226 31.8809 70.3433 31.7901 70.8023 31.6944C71.2613 31.5988 71.7251 31.4984 72.1936 31.3932C72.3084 31.3645 72.4136 31.3502 72.5092 31.3502C72.8056 31.3502 72.9538 31.5414 72.9538 31.9239C72.9538 31.9717 72.9538 32.0196 72.9538 32.0674C72.9538 32.1056 72.9491 32.1486 72.9395 32.1965L71.4621 45.7366Z" fill="#BAC4D1"/>
<path d="M82.736 48.0458C81.3877 48.0458 80.202 47.8259 79.1788 47.3861C78.1652 46.9462 77.3142 46.3629 76.6257 45.6362C75.9372 44.8999 75.4209 44.0584 75.0766 43.1117C74.7324 42.1555 74.5603 41.1658 74.5603 40.1427C74.5603 39.1195 74.7276 38.1489 75.0623 37.231C75.397 36.3034 75.8655 35.4763 76.468 34.7496C77.0704 34.0133 77.7923 33.4013 78.6338 32.9136C79.4753 32.4164 80.4028 32.0817 81.4164 31.9096C81.5694 31.9 81.6459 31.8666 81.6459 31.8092C81.6459 31.704 81.6316 31.6084 81.6029 31.5223C81.5837 31.4267 81.5742 31.3454 81.5742 31.2785C81.5742 31.1733 81.5933 31.1016 81.6316 31.0633C81.6698 31.0251 81.7128 31.006 81.7606 31.006C83.587 31.006 85.1409 31.2163 86.4222 31.6371C87.7036 32.0482 88.7459 32.6124 89.5491 33.3296C90.3523 34.0467 90.9356 34.893 91.299 35.8683C91.6623 36.8437 91.844 37.8908 91.844 39.0095C91.844 40.4343 91.605 41.7061 91.1269 42.8249C90.6487 43.9437 89.9937 44.8903 89.1618 45.6649C88.3395 46.4394 87.3737 47.0275 86.2645 47.4291C85.1648 47.8403 83.9886 48.0458 82.736 48.0458ZM80.0825 39.9849C80.0825 40.5012 80.1351 41.0128 80.2403 41.5196C80.355 42.0264 80.5367 42.4854 80.7853 42.8966C81.0435 43.3078 81.3782 43.6424 81.7893 43.9006C82.2005 44.1492 82.7121 44.2735 83.3241 44.2735C83.7639 44.2544 84.1464 44.1588 84.4715 43.9867C84.8062 43.805 85.0931 43.5755 85.3321 43.2982C85.5712 43.0113 85.7672 42.691 85.9202 42.3372C86.0828 41.9834 86.2071 41.62 86.2931 41.2471C86.3888 40.8646 86.4557 40.4917 86.4939 40.1283C86.5322 39.765 86.5513 39.4351 86.5513 39.1386C86.5513 38.6414 86.4748 38.1537 86.3218 37.6756C86.1784 37.1975 85.9632 36.7768 85.6764 36.4134C85.3895 36.05 85.0309 35.7584 84.6006 35.5385C84.1799 35.309 83.6922 35.1942 83.1376 35.1942C82.5639 35.1942 82.081 35.3663 81.6889 35.7106C81.2969 36.0452 80.9813 36.4612 80.7423 36.9584C80.5128 37.4557 80.3454 37.9816 80.2403 38.5362C80.1351 39.0813 80.0825 39.5642 80.0825 39.9849Z" fill="#BAC4D1"/>
<path d="M114.564 47.8164C114.459 47.845 114.32 47.8881 114.148 47.9454C113.976 48.0124 113.808 48.0458 113.646 48.0458C113.512 48.0458 113.392 48.0124 113.287 47.9454C113.192 47.8785 113.144 47.7638 113.144 47.6012V47.5151C113.211 46.8171 113.268 46.2529 113.316 45.8226C113.364 45.3828 113.402 45.029 113.431 44.7612C113.459 44.4935 113.483 44.2927 113.502 44.1588C113.522 44.0154 113.541 43.8863 113.56 43.7715C113.579 43.6472 113.593 43.5134 113.603 43.3699C113.622 43.2265 113.646 43.0257 113.675 42.7675C113.703 42.4998 113.737 42.1507 113.775 41.7204C113.823 41.2806 113.88 40.7068 113.947 39.9992C113.985 39.6167 114.024 39.239 114.062 38.8661C114.11 38.4836 114.134 38.1346 114.134 37.819C114.134 37.4174 114.11 37.0541 114.062 36.7289C114.024 36.3943 113.947 36.1122 113.832 35.8827C113.727 35.6436 113.579 35.4572 113.388 35.3233C113.196 35.1894 112.953 35.1225 112.656 35.1225C112.475 35.1225 112.235 35.1607 111.939 35.2372C111.652 35.3137 111.361 35.4524 111.064 35.6532C110.768 35.8444 110.5 36.1026 110.261 36.4277C110.022 36.7433 109.869 37.1449 109.802 37.6326V37.69C109.687 38.78 109.582 39.7267 109.486 40.5299C109.4 41.3236 109.324 42.0073 109.257 42.581C109.19 43.1548 109.133 43.6329 109.085 44.0154C109.046 44.3979 109.013 44.723 108.984 44.9907C108.956 45.2489 108.932 45.464 108.913 45.6362C108.903 45.8083 108.898 45.9708 108.898 46.1238C108.898 46.2003 108.898 46.2673 108.898 46.3246C108.908 46.3725 108.913 46.4155 108.913 46.4537C108.913 46.5302 108.874 46.5972 108.798 46.6545C108.731 46.7024 108.573 46.7645 108.325 46.841L104.954 47.8164C104.849 47.845 104.71 47.8881 104.538 47.9454C104.366 48.0124 104.198 48.0458 104.036 48.0458C103.902 48.0458 103.782 48.0124 103.677 47.9454C103.582 47.8785 103.534 47.7638 103.534 47.6012V47.5151C103.601 46.8171 103.653 46.2529 103.692 45.8226C103.739 45.3828 103.778 45.029 103.806 44.7612C103.845 44.4935 103.873 44.2927 103.892 44.1588C103.912 44.0154 103.926 43.8863 103.935 43.7715C103.955 43.6472 103.974 43.5134 103.993 43.3699C104.012 43.2265 104.031 43.0257 104.05 42.7675C104.079 42.4998 104.112 42.1507 104.151 41.7204C104.198 41.2806 104.256 40.7068 104.323 39.9992C104.361 39.6167 104.399 39.239 104.437 38.8661C104.485 38.4836 104.509 38.1346 104.509 37.819C104.509 37.4174 104.49 37.0541 104.452 36.7289C104.414 36.3943 104.342 36.1122 104.237 35.8827C104.141 35.6436 104.007 35.4572 103.835 35.3233C103.663 35.1894 103.443 35.1225 103.175 35.1225C102.984 35.1225 102.721 35.1703 102.386 35.2659C102.061 35.3616 101.731 35.5193 101.397 35.7393C101.072 35.9592 100.78 36.2508 100.522 36.6142C100.273 36.968 100.13 37.4079 100.091 37.9338C100.015 38.6414 99.9528 39.2247 99.905 39.6837C99.8572 40.1331 99.8189 40.506 99.7902 40.8025C99.7615 41.0893 99.7376 41.3236 99.7185 41.5053C99.709 41.6774 99.6994 41.84 99.6898 41.993C99.6803 42.0312 99.6659 42.1412 99.6468 42.3229C99.6277 42.495 99.6038 42.7053 99.5751 42.954C99.556 43.193 99.532 43.456 99.5034 43.7428C99.4842 44.0201 99.4651 44.2831 99.446 44.5317C99.4269 44.7708 99.4077 44.9812 99.3886 45.1628C99.3791 45.335 99.3743 45.4401 99.3743 45.4784V45.7366C99.3743 45.8322 99.3695 45.9135 99.3599 45.9804C99.3504 46.0473 99.3217 46.1095 99.2739 46.1669C99.2261 46.2242 99.1543 46.2768 99.0587 46.3246C98.9727 46.3725 98.8484 46.4251 98.6858 46.4824L94.9278 47.8164C94.8227 47.8546 94.684 47.9024 94.5119 47.9598C94.3398 48.0172 94.1724 48.0458 94.0099 48.0458C93.876 48.0458 93.7565 48.0124 93.6513 47.9454C93.5557 47.8785 93.5078 47.7638 93.5078 47.6012L94.7987 32.971C94.8274 32.6554 94.8609 32.4403 94.8991 32.3255C94.947 32.2012 95.0569 32.12 95.229 32.0817C96.0992 31.9096 96.9885 31.7375 97.8969 31.5653C98.8053 31.3837 99.6946 31.1542 100.565 30.8769C100.641 30.8769 100.684 30.8912 100.694 30.9199C100.713 30.939 100.723 30.9725 100.723 31.0203L100.536 33.1144C100.89 32.9327 101.287 32.7367 101.727 32.5263C102.166 32.3064 102.625 32.1056 103.104 31.9239C103.591 31.7422 104.084 31.594 104.581 31.4793C105.088 31.355 105.58 31.2928 106.058 31.2928C106.718 31.2928 107.325 31.4458 107.88 31.7518C108.444 32.0482 108.908 32.5455 109.271 33.2435C109.701 32.9662 110.156 32.708 110.634 32.469C111.121 32.2299 111.614 32.0243 112.111 31.8522C112.618 31.6801 113.125 31.5462 113.632 31.4506C114.138 31.355 114.631 31.3072 115.109 31.3072C115.711 31.3072 116.28 31.3932 116.816 31.5653C117.351 31.7375 117.815 32.0196 118.207 32.4116C118.609 32.8037 118.924 33.3152 119.154 33.9463C119.383 34.5679 119.498 35.3281 119.498 36.2269C119.498 36.4564 119.493 36.6955 119.484 36.9441C119.474 37.1832 119.455 37.4318 119.426 37.69L118.766 43.8289C118.719 44.2305 118.69 44.6034 118.68 44.9477C118.671 45.2824 118.666 45.6744 118.666 46.1238C118.666 46.2003 118.666 46.2673 118.666 46.3246C118.676 46.3725 118.68 46.4155 118.68 46.4537C118.68 46.5398 118.642 46.6067 118.566 46.6545C118.499 46.7024 118.341 46.7645 118.092 46.841L114.564 47.8164Z" fill="#BAC4D1"/>
<path d="M130.212 31.2928C131.121 31.2928 131.943 31.4649 132.68 31.8092C133.425 32.1439 134.061 32.5837 134.587 33.1288C135.123 33.6643 135.534 34.2667 135.821 34.936C136.108 35.6054 136.251 36.2747 136.251 36.9441C136.251 37.537 136.069 38.1346 135.706 38.737C135.343 39.3299 134.831 39.8654 134.171 40.3435C133.521 40.8216 132.737 41.2089 131.819 41.5053C130.901 41.8017 129.892 41.9499 128.792 41.9499C128.219 41.9499 127.616 41.8926 126.985 41.7778C127.023 42.189 127.143 42.5428 127.344 42.8392C127.545 43.1356 127.798 43.3795 128.104 43.5707C128.41 43.762 128.754 43.9054 129.137 44.001C129.529 44.0871 129.93 44.1301 130.342 44.1301C130.801 44.1301 131.24 44.0919 131.661 44.0154C132.091 43.9293 132.503 43.8193 132.895 43.6855C133.287 43.5516 133.664 43.4034 134.028 43.2408C134.391 43.0783 134.735 42.9157 135.061 42.7532C135.147 42.734 135.218 42.7197 135.276 42.7101C135.343 42.691 135.405 42.6814 135.462 42.6814C135.462 42.6814 135.457 42.7579 135.448 42.9109C135.448 43.0639 135.448 43.2791 135.448 43.5564C135.448 43.8337 135.443 44.1684 135.433 44.5604C135.433 44.9525 135.429 45.3875 135.419 45.8657C135.448 45.9135 135.467 45.9613 135.476 46.0091C135.486 46.0569 135.491 46.0952 135.491 46.1238C135.491 46.2386 135.386 46.3629 135.175 46.4968C134.965 46.6306 134.688 46.7693 134.343 46.9127C134.009 47.0562 133.621 47.1948 133.182 47.3287C132.751 47.4626 132.311 47.5821 131.862 47.6873C131.413 47.802 130.977 47.8881 130.557 47.9454C130.136 48.0124 129.768 48.0458 129.452 48.0458C128.42 48.0458 127.416 47.8642 126.44 47.5008C125.474 47.147 124.614 46.6354 123.858 45.9661C123.113 45.2967 122.515 44.4839 122.065 43.5277C121.616 42.5715 121.391 41.4957 121.391 40.3004C121.391 39.0478 121.606 37.8764 122.037 36.7863C122.467 35.6867 123.069 34.7304 123.844 33.9177C124.628 33.1049 125.56 32.4642 126.641 31.9956C127.721 31.5271 128.912 31.2928 130.212 31.2928ZM130.04 35.1082C129.648 35.1082 129.285 35.1942 128.95 35.3663C128.625 35.5289 128.324 35.7679 128.047 36.0835C127.779 36.3895 127.545 36.7624 127.344 37.2023C127.143 37.6326 126.98 38.1107 126.856 38.6366C127.841 38.4645 128.659 38.2828 129.309 38.0916C129.959 37.9003 130.48 37.7091 130.872 37.5178C131.264 37.317 131.542 37.121 131.704 36.9298C131.867 36.7289 131.948 36.5377 131.948 36.356C131.948 36.1839 131.881 36.0213 131.747 35.8683C131.623 35.7154 131.465 35.5815 131.274 35.4667C131.083 35.352 130.872 35.2659 130.643 35.2086C130.423 35.1416 130.222 35.1082 130.04 35.1082Z" fill="#BAC4D1"/>
<path d="M139.98 47.3C139.789 47.3 139.583 47.2904 139.364 47.2713C139.153 47.2522 138.957 47.2187 138.775 47.1709C138.603 47.1135 138.455 47.0418 138.331 46.9558C138.216 46.8697 138.159 46.7549 138.159 46.6115C138.159 46.602 138.163 46.5876 138.173 46.5685C138.183 46.5494 138.187 46.5302 138.187 46.5111L143.251 36.1265C142.849 36.1265 142.4 36.1361 141.902 36.1552C141.405 36.1648 140.903 36.1791 140.396 36.1982C139.899 36.2078 139.421 36.2174 138.962 36.2269C138.512 36.2365 138.13 36.2413 137.814 36.2413C137.719 36.2413 137.647 36.2126 137.599 36.1552C137.551 36.0883 137.528 36.0166 137.528 35.9401V35.8827L138.976 32.4259C139.053 32.1678 139.196 32.0004 139.407 31.9239C139.617 31.8474 139.827 31.8092 140.038 31.8092C141.721 31.8092 143.37 31.8379 144.986 31.8952C146.612 31.9526 148.261 31.9813 149.935 31.9813C150.04 31.9813 150.145 32.0148 150.25 32.0817C150.365 32.1486 150.422 32.2299 150.422 32.3255C150.422 32.3351 150.413 32.3686 150.394 32.4259L145.847 42.3515C145.847 42.3707 145.871 42.385 145.918 42.3946C145.976 42.4041 146.043 42.4137 146.119 42.4233C146.205 42.4328 146.287 42.4376 146.363 42.4376C146.449 42.4376 146.521 42.4376 146.578 42.4376C147.181 42.4376 147.764 42.4233 148.328 42.3946C148.892 42.3659 149.461 42.3515 150.035 42.3515C150.14 42.3515 150.231 42.3754 150.307 42.4233C150.384 42.4711 150.422 42.5667 150.422 42.7101C150.422 42.7292 150.413 42.7388 150.394 42.7388L148.586 46.5111C148.5 46.6928 148.347 46.8362 148.127 46.9414C147.907 47.0466 147.64 47.1279 147.324 47.1852C147.009 47.2331 146.655 47.2665 146.263 47.2857C145.88 47.2952 145.483 47.3 145.072 47.3H139.98Z" fill="#BAC4D1"/>
<path d="M158.325 42.6241C158.421 42.8153 158.555 43.0113 158.727 43.2121C158.909 43.4034 159.114 43.5803 159.344 43.7428C159.583 43.9054 159.841 44.0393 160.118 44.1445C160.396 44.2401 160.683 44.2879 160.979 44.2879C161.39 44.2879 161.777 44.1301 162.141 43.8146C162.504 43.4894 162.82 43.0591 163.087 42.5237C163.365 41.9786 163.58 41.3619 163.733 40.6734C163.886 39.9753 163.962 39.2534 163.962 38.5075C163.962 38.0485 163.919 37.6135 163.833 37.2023C163.757 36.7911 163.632 36.4325 163.46 36.1265C163.288 35.8205 163.063 35.5767 162.786 35.395C162.518 35.2133 162.193 35.1225 161.811 35.1225C161.189 35.1225 160.62 35.3042 160.104 35.6675C159.588 36.0309 159.153 36.4947 158.799 37.0588L158.325 42.6241ZM152.99 48.0028C152.856 48.0315 152.751 48.0458 152.674 48.0458C152.368 48.0458 152.215 47.8642 152.215 47.5008C152.215 47.453 152.215 47.4052 152.215 47.3574C152.225 47.3096 152.234 47.257 152.244 47.1996L153.908 26.9038C153.908 26.8751 153.908 26.8464 153.908 26.8177C153.917 26.789 153.922 26.7651 153.922 26.746C153.922 26.7077 153.917 26.6743 153.908 26.6456C153.908 26.6169 153.908 26.593 153.908 26.5739C153.908 26.4878 153.936 26.4209 153.994 26.3731C154.061 26.3157 154.223 26.2535 154.481 26.1866L158.512 25.2256C158.617 25.2065 158.756 25.1634 158.928 25.0965C159.1 25.0296 159.267 24.9961 159.43 24.9961C159.554 24.9961 159.669 25.0248 159.774 25.0822C159.889 25.1395 159.946 25.2495 159.946 25.4121C159.946 25.4312 159.941 25.4503 159.932 25.4694C159.932 25.4885 159.932 25.5077 159.932 25.5268C159.922 25.5746 159.898 25.785 159.86 26.1579C159.822 26.5308 159.779 26.985 159.731 27.5205C159.683 28.0464 159.631 28.6154 159.573 29.2274C159.516 29.8298 159.463 30.3988 159.416 30.9342C159.368 31.4602 159.325 31.9096 159.286 32.2825C159.248 32.6554 159.224 32.8658 159.215 32.9136C159.913 32.4546 160.635 32.0721 161.381 31.7662C162.126 31.4506 162.872 31.2928 163.618 31.2928C164.603 31.2928 165.454 31.4984 166.171 31.9096C166.888 32.3112 167.481 32.8515 167.95 33.5304C168.418 34.1997 168.763 34.9743 168.983 35.854C169.212 36.7337 169.327 37.6421 169.327 38.5792C169.327 39.3347 169.255 40.0949 169.112 40.8598C168.978 41.6152 168.777 42.342 168.509 43.04C168.251 43.7381 167.921 44.3931 167.52 45.0051C167.127 45.617 166.673 46.1477 166.157 46.5972C165.65 47.0466 165.081 47.4004 164.45 47.6586C163.819 47.9168 163.135 48.0458 162.399 48.0458C161.51 48.0458 160.697 47.8498 159.961 47.4578C159.224 47.0657 158.541 46.5589 157.909 45.9374C157.89 46.1669 157.876 46.3486 157.866 46.4824C157.857 46.6163 157.823 46.7215 157.766 46.798C157.718 46.8649 157.642 46.9223 157.537 46.9701C157.431 47.0083 157.274 47.0514 157.063 47.0992C156.958 47.1279 156.772 47.1757 156.504 47.2426C156.246 47.3 155.93 47.3669 155.557 47.4434C155.194 47.5295 154.787 47.6203 154.338 47.716C153.898 47.8116 153.449 47.9072 152.99 48.0028Z" fill="#BAC4D1"/>
<path d="M186.367 45.5214C186.338 45.837 186.3 46.0569 186.252 46.1812C186.204 46.296 186.099 46.3725 185.936 46.4107C185.124 46.6402 184.273 46.8745 183.383 47.1135C182.504 47.343 181.648 47.649 180.816 48.0315C180.787 48.0411 180.744 48.0458 180.687 48.0458C180.61 48.0458 180.562 48.0267 180.543 47.9885C180.534 47.9502 180.529 47.9072 180.529 47.8594C180.529 47.8403 180.529 47.8068 180.529 47.759C180.538 47.7112 180.553 47.6203 180.572 47.4865C180.591 47.3621 180.615 47.1852 180.644 46.9558C180.682 46.7263 180.73 46.4203 180.787 46.0378C179.716 46.7358 178.765 47.2426 177.933 47.5582C177.11 47.8833 176.379 48.0458 175.738 48.0458C174.141 48.0458 172.975 47.6634 172.238 46.8984C171.512 46.1238 171.148 44.9716 171.148 43.4416C171.148 43.1643 171.153 42.8822 171.163 42.5954C171.172 42.2989 171.201 41.9977 171.249 41.6917C171.354 40.5634 171.445 39.5976 171.521 38.7944C171.598 37.9816 171.66 37.2931 171.708 36.7289C171.756 36.1648 171.794 35.7058 171.823 35.352C171.861 34.9886 171.889 34.6874 171.909 34.4484C171.937 34.2093 171.956 34.0133 171.966 33.8603C171.985 33.6977 172.004 33.5399 172.023 33.387C172.062 33.081 172.095 32.8658 172.124 32.7415C172.162 32.6172 172.272 32.5359 172.454 32.4977C172.903 32.4116 173.329 32.3351 173.73 32.2682C174.141 32.1917 174.543 32.1152 174.935 32.0387C175.337 31.9526 175.743 31.8618 176.154 31.7662C176.565 31.6705 177 31.5558 177.459 31.4219C177.479 31.4219 177.498 31.4219 177.517 31.4219C177.536 31.4123 177.555 31.4076 177.574 31.4076C177.689 31.4076 177.746 31.4458 177.746 31.5223V31.551C177.708 31.8761 177.675 32.1821 177.646 32.469C177.617 32.7558 177.589 33.0523 177.56 33.3583C177.531 33.6547 177.498 33.975 177.459 34.3193C177.431 34.6635 177.393 35.0651 177.345 35.5241C177.297 35.9735 177.24 36.4947 177.173 37.0875C177.106 37.6804 177.024 38.3689 176.929 39.153C176.871 39.7267 176.814 40.3004 176.757 40.8742C176.699 41.4383 176.671 41.9643 176.671 42.4519C176.671 42.7197 176.69 42.9683 176.728 43.1978C176.766 43.4177 176.833 43.609 176.929 43.7715C177.034 43.9245 177.168 44.0441 177.33 44.1301C177.493 44.2162 177.703 44.2592 177.961 44.2592C178.162 44.2592 178.435 44.2162 178.779 44.1301C179.123 44.0345 179.467 43.8767 179.812 43.6568C180.156 43.4273 180.457 43.1309 180.715 42.7675C180.983 42.3946 181.136 41.926 181.174 41.3619C181.241 40.4152 181.299 39.6263 181.346 38.9952C181.404 38.3545 181.452 37.819 181.49 37.3887C181.528 36.9489 181.562 36.5807 181.59 36.2843C181.619 35.9879 181.643 35.7058 181.662 35.438C181.691 35.1607 181.715 34.8691 181.734 34.5631C181.753 34.2476 181.772 33.8555 181.791 33.387C181.82 33.0714 181.853 32.8562 181.892 32.7415C181.939 32.6172 182.049 32.5359 182.221 32.4977C183.092 32.3255 183.981 32.1534 184.889 31.9813C185.798 31.7996 186.687 31.5701 187.557 31.2928C187.634 31.2928 187.677 31.3072 187.686 31.3359C187.705 31.355 187.715 31.3884 187.715 31.4363L186.367 45.5214Z" fill="#BAC4D1"/>
<path d="M191.502 47.3C191.31 47.3 191.105 47.2904 190.885 47.2713C190.674 47.2522 190.478 47.2187 190.297 47.1709C190.125 47.1135 189.976 47.0418 189.852 46.9558C189.737 46.8697 189.68 46.7549 189.68 46.6115C189.68 46.602 189.685 46.5876 189.694 46.5685C189.704 46.5494 189.709 46.5302 189.709 46.5111L194.772 36.1265C194.37 36.1265 193.921 36.1361 193.424 36.1552C192.926 36.1648 192.424 36.1791 191.918 36.1982C191.42 36.2078 190.942 36.2174 190.483 36.2269C190.034 36.2365 189.651 36.2413 189.336 36.2413C189.24 36.2413 189.168 36.2126 189.121 36.1552C189.073 36.0883 189.049 36.0166 189.049 35.9401V35.8827L190.498 32.4259C190.574 32.1678 190.717 32.0004 190.928 31.9239C191.138 31.8474 191.349 31.8092 191.559 31.8092C193.242 31.8092 194.891 31.8379 196.507 31.8952C198.133 31.9526 199.782 31.9813 201.456 31.9813C201.561 31.9813 201.666 32.0148 201.771 32.0817C201.886 32.1486 201.944 32.2299 201.944 32.3255C201.944 32.3351 201.934 32.3686 201.915 32.4259L197.368 42.3515C197.368 42.3707 197.392 42.385 197.44 42.3946C197.497 42.4041 197.564 42.4137 197.641 42.4233C197.727 42.4328 197.808 42.4376 197.884 42.4376C197.97 42.4376 198.042 42.4376 198.1 42.4376C198.702 42.4376 199.285 42.4233 199.849 42.3946C200.414 42.3659 200.983 42.3515 201.556 42.3515C201.661 42.3515 201.752 42.3754 201.829 42.4233C201.905 42.4711 201.944 42.5667 201.944 42.7101C201.944 42.7292 201.934 42.7388 201.915 42.7388L200.108 46.5111C200.022 46.6928 199.869 46.8362 199.649 46.9414C199.429 47.0466 199.161 47.1279 198.845 47.1852C198.53 47.2331 198.176 47.2665 197.784 47.2857C197.401 47.2952 197.005 47.3 196.593 47.3H191.502Z" fill="#BAC4D1"/>
<path d="M205.558 47.3C205.367 47.3 205.161 47.2904 204.941 47.2713C204.731 47.2522 204.535 47.2187 204.353 47.1709C204.181 47.1135 204.033 47.0418 203.909 46.9558C203.794 46.8697 203.736 46.7549 203.736 46.6115C203.736 46.602 203.741 46.5876 203.751 46.5685C203.76 46.5494 203.765 46.5302 203.765 46.5111L208.828 36.1265C208.427 36.1265 207.977 36.1361 207.48 36.1552C206.983 36.1648 206.481 36.1791 205.974 36.1982C205.477 36.2078 204.999 36.2174 204.54 36.2269C204.09 36.2365 203.708 36.2413 203.392 36.2413C203.297 36.2413 203.225 36.2126 203.177 36.1552C203.129 36.0883 203.105 36.0166 203.105 35.9401V35.8827L204.554 32.4259C204.631 32.1678 204.774 32.0004 204.984 31.9239C205.195 31.8474 205.405 31.8092 205.615 31.8092C207.298 31.8092 208.948 31.8379 210.564 31.8952C212.189 31.9526 213.839 31.9813 215.512 31.9813C215.618 31.9813 215.723 32.0148 215.828 32.0817C215.943 32.1486 216 32.2299 216 32.3255C216 32.3351 215.99 32.3686 215.971 32.4259L211.424 42.3515C211.424 42.3707 211.448 42.385 211.496 42.3946C211.554 42.4041 211.62 42.4137 211.697 42.4233C211.783 42.4328 211.864 42.4376 211.941 42.4376C212.027 42.4376 212.099 42.4376 212.156 42.4376C212.758 42.4376 213.342 42.4233 213.906 42.3946C214.47 42.3659 215.039 42.3515 215.613 42.3515C215.718 42.3515 215.809 42.3754 215.885 42.4233C215.962 42.4711 216 42.5667 216 42.7101C216 42.7292 215.99 42.7388 215.971 42.7388L214.164 46.5111C214.078 46.6928 213.925 46.8362 213.705 46.9414C213.485 47.0466 213.217 47.1279 212.902 47.1852C212.586 47.2331 212.232 47.2665 211.84 47.2857C211.458 47.2952 211.061 47.3 210.65 47.3H205.558Z" fill="#BAC4D1"/>
</svg>
