<svg width="272" height="80" viewBox="0 0 272 80" fill="none" xmlns="http://www.w3.org/2000/svg">
<path d="M76.9744 53.963C78.9376 53.963 80.1796 53.6024 80.7005 52.8812C81.2614 52.1601 81.5419 50.9381 81.5419 49.2152V37.5561H77.6956V36.234H95.0039V37.5561H92.6601V54.5039H91.7586C91.0374 53.5023 90.0157 53.0014 88.6936 53.0014C88.1327 53.0014 86.4499 53.362 83.6453 54.0832C80.8808 54.8044 78.5169 55.165 76.5537 55.165C70.023 55.165 64.9547 53.4021 61.3488 49.8763C57.7829 46.3505 56 41.0619 56 34.0103C56 26.9187 57.8631 21.4497 61.5892 17.6034C65.3553 13.7571 70.4036 11.834 76.734 11.834C79.178 11.834 81.622 12.1545 84.066 12.7956C86.5501 13.3965 87.9924 13.697 88.3931 13.697C88.7937 13.697 89.0942 13.6169 89.2946 13.4566C89.4949 13.2563 89.7152 12.9358 89.9556 12.4951H90.6167L91.0975 25.5364H90.0157C88.0525 21.6501 86.0693 18.6051 84.066 16.4015C82.1028 14.1578 79.8992 13.036 77.4552 13.036C71.3251 13.036 68.2601 19.0258 68.2601 31.0054V35.7532C68.2601 41.763 69.0013 46.3105 70.4837 49.3955C72.0062 52.4405 74.1698 53.963 76.9744 53.963Z" fill="#BAC4D1"/>
<path d="M111.698 40.4409H113.441V35.8133C113.441 32.007 113.22 29.4629 112.779 28.1808C112.379 26.8586 111.577 26.1975 110.376 26.1975C109.654 26.1975 108.993 26.3978 108.392 26.7985C107.831 27.1591 107.551 27.6799 107.551 28.3611C107.551 29.0021 107.671 29.6632 107.911 30.3443H109.414C109.734 31.1857 109.895 32.2074 109.895 33.4093C109.895 34.5712 109.394 35.5929 108.392 36.4744C107.391 37.3157 106.129 37.7364 104.606 37.7364C101.16 37.7364 99.4376 36.0737 99.4376 32.7483C99.4376 27.8202 103.624 25.3561 111.998 25.3561C116.766 25.3561 120.051 26.1775 121.854 27.8202C123.697 29.4228 124.619 32.3877 124.619 36.7148V48.9147C124.619 50.9982 125.2 52.0399 126.362 52.0399C127.724 52.0399 128.525 49.9765 128.766 45.8497L129.667 45.9098C129.507 49.4356 128.846 51.8596 127.684 53.1817C126.522 54.5039 124.619 55.165 121.975 55.165C117.167 55.165 114.402 53.6826 113.681 50.7177C113.16 52.2402 112.379 53.362 111.337 54.0832C110.295 54.8044 108.773 55.165 106.77 55.165C100.84 55.165 97.875 52.741 97.875 47.8931C97.875 45.0484 98.9969 43.1052 101.241 42.0635C103.524 40.9817 107.01 40.4409 111.698 40.4409ZM109.294 47.833C109.294 49.9164 109.394 51.2586 109.594 51.8596C109.835 52.4606 110.255 52.761 110.856 52.761C111.497 52.761 112.078 52.2602 112.599 51.2586C113.16 50.2169 113.441 48.7945 113.441 46.9916V41.4024H113.02C110.536 41.4024 109.294 43.2254 109.294 46.8714V47.833Z" fill="#BAC4D1"/>
<path d="M130.258 25.9571H144.742V31.4862C146.064 27.3995 148.968 25.3561 153.456 25.3561C157.983 25.3561 160.728 27.5197 161.689 31.8468C163.092 27.5197 166.036 25.3561 170.524 25.3561C176.413 25.3561 179.358 28.7016 179.358 35.3926V53.4822H182.724V54.564H166.076V53.4822H168.18V33.9502C168.18 30.9052 167.919 29.1223 167.399 28.6015C167.158 28.3611 166.838 28.2409 166.437 28.2409C165.275 28.2409 164.253 29.0221 163.372 30.5847C162.491 32.1473 162.05 34.1305 162.05 36.5345V53.4822H164.213V54.564H148.768V53.4822H150.872V33.9502C150.872 30.9052 150.611 29.1223 150.09 28.6015C149.85 28.3611 149.529 28.2409 149.129 28.2409C148.007 28.2409 146.985 29.1023 146.064 30.8251C145.182 32.5079 144.742 34.5312 144.742 36.8951V53.4822H146.905V54.564H130.258V53.4822H133.563V27.0389H130.258V25.9571Z" fill="#BAC4D1"/>
<path d="M198.031 40.4409H199.773V35.8133C199.773 32.007 199.553 29.4629 199.112 28.1808C198.712 26.8586 197.91 26.1975 196.708 26.1975C195.987 26.1975 195.326 26.3978 194.725 26.7985C194.164 27.1591 193.884 27.6799 193.884 28.3611C193.884 29.0021 194.004 29.6632 194.244 30.3443H195.747C196.067 31.1857 196.228 32.2074 196.228 33.4093C196.228 34.5712 195.727 35.5929 194.725 36.4744C193.723 37.3157 192.461 37.7364 190.939 37.7364C187.493 37.7364 185.77 36.0737 185.77 32.7483C185.77 27.8202 189.957 25.3561 198.331 25.3561C203.099 25.3561 206.384 26.1775 208.187 27.8202C210.03 29.4228 210.952 32.3877 210.952 36.7148V48.9147C210.952 50.9982 211.533 52.0399 212.695 52.0399C214.057 52.0399 214.858 49.9765 215.099 45.8497L216 45.9098C215.84 49.4356 215.179 51.8596 214.017 53.1817C212.855 54.5039 210.952 55.165 208.307 55.165C203.5 55.165 200.735 53.6826 200.014 50.7177C199.493 52.2402 198.712 53.362 197.67 54.0832C196.628 54.8044 195.106 55.165 193.102 55.165C187.173 55.165 184.208 52.741 184.208 47.8931C184.208 45.0484 185.33 43.1052 187.573 42.0635C189.857 40.9817 193.343 40.4409 198.031 40.4409ZM195.627 47.833C195.627 49.9164 195.727 51.2586 195.927 51.8596C196.167 52.4606 196.588 52.761 197.189 52.761C197.83 52.761 198.411 52.2602 198.932 51.2586C199.493 50.2169 199.773 48.7945 199.773 46.9916V41.4024H199.353C196.869 41.4024 195.627 43.2254 195.627 46.8714V47.833Z" fill="#BAC4D1"/>
</svg>
