<svg width="272" height="80" viewBox="0 0 272 80" fill="none" xmlns="http://www.w3.org/2000/svg">
<path d="M82.1384 23.3295H56V31.8645H63.7348V56.6693H74.4036V31.8645H82.1384V23.3295Z" fill="#BAC4D1"/>
<path d="M108.348 45.556L114.127 56.6693H102.392L98.0353 46.7563H95.7237V56.6693H85.055V23.3295H101.858C109.504 23.3295 113.327 27.2265 113.327 35.0206C113.327 40.355 111.668 43.8668 108.348 45.556ZM98.1687 31.8645H95.7237V38.5324H98.1687C99.4726 38.5324 100.406 38.3991 100.969 38.1323C101.562 37.8656 101.858 37.2581 101.858 36.3098V34.0871C101.858 33.1388 101.562 32.5312 100.969 32.2645C100.406 31.9978 99.4726 31.8645 98.1687 31.8645Z" fill="#BAC4D1"/>
<path d="M127.031 51.3794H135.833L137.078 56.6693H148.324L139.7 23.3295H123.208L114.584 56.6693H125.831L127.031 51.3794ZM131.743 33.5537L133.877 42.8888H128.987L131.165 33.5537H131.743Z" fill="#BAC4D1"/>
<path d="M172.527 47.1119L173.327 56.0914C171.045 57.0101 168.229 57.4695 164.881 57.4695C161.71 57.4695 159.087 57.1287 157.012 56.447C154.938 55.7358 153.293 54.6689 152.078 53.2464C150.863 51.8239 150.004 50.0161 149.5 47.8231C149.026 45.6301 148.789 43.037 148.789 40.0438C148.789 37.1396 149.011 34.6057 149.455 32.4423C149.93 30.2493 150.759 28.4267 151.945 26.9746C153.13 25.4928 154.731 24.3815 156.746 23.6406C158.791 22.8997 161.369 22.5293 164.481 22.5293C165.162 22.5293 165.918 22.5737 166.748 22.6627C167.607 22.7219 168.437 22.8108 169.237 22.9294C170.067 23.0479 170.837 23.1961 171.549 23.3739C172.289 23.5221 172.882 23.6999 173.327 23.9073L171.726 32.0867C169.356 31.5829 167.237 31.331 165.37 31.331C163.443 31.331 162.11 31.5088 161.369 31.8645C160.628 32.2201 160.258 32.9313 160.258 33.9982V47.9565C160.939 48.1047 161.621 48.2232 162.302 48.3121C163.014 48.3714 163.74 48.401 164.481 48.401C167.444 48.401 170.126 47.9713 172.527 47.1119Z" fill="#BAC4D1"/>
<path d="M187.712 56.6693V23.3295H177.043V56.6693H187.712Z" fill="#BAC4D1"/>
<path d="M215.2 47.1119L216 56.0914C213.718 57.0101 210.903 57.4695 207.554 57.4695C204.383 57.4695 201.76 57.1287 199.686 56.447C197.611 55.7358 195.966 54.6689 194.751 53.2464C193.536 51.8239 192.677 50.0161 192.173 47.8231C191.699 45.6301 191.462 43.037 191.462 40.0438C191.462 37.1396 191.684 34.6057 192.129 32.4423C192.603 30.2493 193.433 28.4267 194.618 26.9746C195.803 25.4928 197.404 24.3815 199.419 23.6406C201.464 22.8997 204.042 22.5293 207.154 22.5293C207.835 22.5293 208.591 22.5737 209.421 22.6627C210.28 22.7219 211.11 22.8108 211.91 22.9294C212.74 23.0479 213.511 23.1961 214.222 23.3739C214.963 23.5221 215.555 23.6999 216 23.9073L214.4 32.0867C212.029 31.5829 209.91 31.331 208.043 31.331C206.117 31.331 204.783 31.5088 204.042 31.8645C203.301 32.2201 202.931 32.9313 202.931 33.9982V47.9565C203.612 48.1047 204.294 48.2232 204.976 48.3121C205.687 48.3714 206.413 48.401 207.154 48.401C210.117 48.401 212.799 47.9713 215.2 47.1119Z" fill="#BAC4D1"/>
</svg>
