<svg width="272" height="81" viewBox="0 0 272 81" fill="none" xmlns="http://www.w3.org/2000/svg">
<path d="M78.912 64.3365C77.141 64.3365 76.3662 63.2296 76.4769 61.1266C76.5876 60.1304 76.5876 59.4663 76.5876 59.1342C76.5876 60.4625 76.6982 55.2602 76.9196 43.4168C77.0303 35.1154 76.9196 30.0239 76.5876 28.1422C76.4769 25.8178 75.37 24.7109 73.267 24.7109C72.9349 24.7109 72.6029 24.7109 72.2708 24.8216C69.725 27.6995 66.8472 29.8025 63.6373 31.02V44.7451C63.748 48.8404 63.748 51.1648 63.748 51.829C63.748 54.8175 65.0762 56.9205 67.7327 58.2487L71.7174 53.2679V62.0121C71.7174 63.6723 71.6067 64.8899 71.496 65.554L70.0571 67.4357C67.1793 70.7562 64.9655 72.7486 63.4159 73.302C61.4236 74.0768 58.9885 73.9661 56 72.9699C57.3282 74.5195 59.2099 75.2943 61.7557 75.2943C65.1869 75.2943 68.3968 73.8554 71.6067 70.8669C75.8128 66.9929 78.2478 64.7792 78.912 64.3365ZM71.7174 50.8328C71.3853 51.0542 70.9426 51.1648 70.6105 51.1648C69.9464 51.1648 69.393 50.7221 68.9502 49.7259C68.7289 49.3939 68.6182 48.9511 68.6182 48.3977L68.5075 35.6688C68.5075 33.3444 68.5075 31.9055 68.6182 31.3521C68.6182 29.9132 69.1716 29.1384 70.1678 29.1384C71.3853 29.1384 71.9388 30.9093 71.8281 34.3406L71.7174 50.8328Z" fill="#BAC4D1"/>
<path d="M94.3742 53.3786C94.3742 53.2679 94.3742 53.2679 94.2636 53.2679H93.9315C92.3819 53.4892 91.4964 52.7144 91.3857 50.9435C91.6071 39.5428 91.7178 33.5658 91.7178 32.9017C91.8285 28.0315 91.0537 25.3751 89.6148 24.9323C89.5041 24.8216 89.0613 25.043 88.3972 25.4857C86.2942 26.4819 84.6339 27.146 83.4163 27.4781C81.3133 28.4743 79.9851 30.0239 79.4317 32.1269C78.8782 34.2299 79.2103 36.4436 80.2065 38.8787L79.0996 39.7642V50.2794C79.2103 51.2755 79.2103 51.829 79.2103 51.829C79.321 54.8175 80.6492 56.9205 83.195 58.2487L86.7369 53.7106C87.1797 55.703 88.3972 57.2526 90.5002 58.2487L94.3742 53.3786ZM86.6262 33.6765C84.5232 34.4513 82.5309 36.665 80.6492 38.436C80.5385 37.6612 80.4278 36.9971 80.4278 36.3329C80.4278 34.0085 81.424 32.4589 83.527 31.6841L86.6262 31.02V33.6765ZM86.6262 53.2679C85.0766 53.4892 84.1911 52.7144 84.0805 50.9435C84.0805 50.8328 84.0805 50.8328 84.0805 50.8328H83.9698V42.642C83.9698 38.9894 84.8553 36.4436 86.6262 35.1154L86.5156 49.6152C86.5156 51.3862 86.5156 52.6038 86.6262 53.2679Z" fill="#BAC4D1"/>
<path d="M121.543 53.3786C121.543 53.2679 121.543 53.2679 121.433 53.2679H121.101C119.662 53.4892 118.776 52.7144 118.555 50.9435L118.776 38.2146C118.887 35.0047 118.887 33.2337 118.887 32.9017C118.887 30.3559 118.887 28.8063 118.776 28.2529C118.555 26.5926 117.891 25.4857 116.894 25.043L111.028 29.2491C110.807 27.0353 110.143 25.5964 108.925 25.043L102.948 29.3597C102.837 27.0353 102.173 25.5964 100.956 25.043L95.3107 29.1384C95.4214 29.2491 95.5321 29.2491 95.6428 29.2491C97.5245 29.1384 97.9672 30.2452 97.9672 32.4589L97.8565 49.6152C97.8565 51.7183 97.9672 53.0465 98.0779 53.8213C98.5206 55.8136 99.7382 57.2526 101.841 58.2487L105.605 53.3786C105.605 53.2679 105.605 53.2679 105.494 53.2679H105.272C103.723 53.4892 102.837 52.7144 102.616 50.9435C102.948 39.2108 103.059 33.2337 103.059 32.9017V31.1307C103.391 31.02 103.723 30.9093 103.834 30.7987C104.166 30.688 104.387 30.688 104.608 30.7987C105.162 30.7987 105.605 31.1307 105.826 31.9055C105.937 32.5696 105.937 33.1231 105.826 33.5658L105.937 49.6152C105.937 52.161 105.937 53.5999 106.047 53.8213C106.601 55.8136 107.818 57.2526 109.921 58.2487L113.685 53.3786C113.685 53.2679 113.685 53.2679 113.574 53.2679H113.242C111.692 53.4892 110.807 52.7144 110.696 50.9435L110.917 38.2146C111.028 34.0085 111.028 31.5735 111.028 31.02L111.803 30.7987C112.024 30.688 112.246 30.688 112.467 30.7987C113.242 30.7987 113.574 31.1307 113.685 31.9055C113.795 32.4589 113.795 33.0124 113.685 33.5658L113.795 49.6152C113.795 51.9396 113.906 53.2679 114.017 53.8213C114.57 55.8136 115.788 57.2526 117.78 58.2487L121.543 53.3786Z" fill="#BAC4D1"/>
<path d="M135.389 33.7872C134.836 33.1231 134.504 32.3483 134.504 31.5735C134.393 28.5849 134.172 26.7033 133.84 25.9285C133.618 25.3751 133.286 24.9323 132.733 24.7109L122.771 31.9055C122.661 32.0162 122.661 32.1269 122.771 32.2376V48.5084C122.771 50.7221 122.882 52.161 122.993 52.8251C123.546 55.1495 125.206 56.9205 128.084 58.0274L129.523 58.6915L130.076 58.138C132.954 55.2602 134.725 52.2717 135.279 49.1725C135.611 47.5122 135.5 45.9626 135.057 44.5237V44.413L133.065 41.0924C134.061 44.1916 134.283 46.6267 133.618 48.5084L132.954 50.058C131.958 51.4969 131.073 52.2717 130.076 52.4931C128.305 52.9358 127.42 51.3862 127.42 47.8443V43.8596C128.859 40.4283 130.962 37.4398 133.84 35.0047C134.615 34.4513 134.947 34.1192 135.057 34.0085L135.389 33.7872ZM130.076 36.3329C129.191 38.436 128.305 39.9856 127.42 40.9817V30.5773C127.42 30.4666 127.531 30.4666 127.641 30.4666C127.863 30.3559 128.084 30.3559 128.416 30.4666C128.859 30.4666 129.191 30.688 129.523 31.1307C129.855 31.9055 130.076 33.6765 130.076 36.3329Z" fill="#BAC4D1"/>
<path d="M151.099 32.5696C151.32 30.9093 150.546 29.3597 148.664 27.6995C147.114 26.2605 145.454 25.3751 143.794 24.9323C143.462 25.2644 143.019 26.2605 142.465 27.6995C142.133 26.3712 141.58 25.4857 140.695 25.043L135.05 29.1384C135.16 29.2491 135.271 29.2491 135.382 29.2491C137.263 29.1384 137.706 30.2452 137.706 32.4589L137.595 49.6152C137.595 51.7183 137.706 53.0465 137.817 53.8213C138.259 55.8136 139.477 57.2526 141.58 58.2487L145.343 53.3786C145.343 53.2679 145.343 53.2679 145.233 53.2679H145.011C143.462 53.4892 142.576 52.7144 142.355 50.9435C142.687 39.2108 142.798 33.2337 142.798 32.9017V31.1307C143.13 30.7987 143.572 30.688 144.015 30.7987C145.011 30.9093 145.675 32.0162 145.897 33.8979C146.007 34.4513 145.897 35.3368 145.675 36.5543L151.099 32.5696Z" fill="#BAC4D1"/>
<path d="M168.778 50.1687C168.224 50.7221 167.228 51.0542 165.789 51.0542H157.266C158.262 48.7298 159.48 46.0733 160.698 42.9741C161.251 43.3062 161.583 43.6382 161.694 43.9703V44.081C161.804 44.1916 161.804 44.1916 161.804 44.3023C162.026 43.9703 163.133 42.8634 165.125 40.9817C166.564 39.6535 167.117 38.3253 166.896 36.9971C165.9 38.1039 164.35 38.6573 162.468 38.6573C165.236 31.9055 167.007 27.4781 168.003 25.4857H167.892L168.003 25.3751H165.9C163.354 25.2644 161.583 25.2644 160.698 25.2644C158.816 25.1537 157.598 25.2644 157.266 25.3751C156.381 25.7071 155.606 26.4819 154.942 27.8101L152.95 31.6841C153.503 31.1307 154.499 30.9093 155.938 30.9093H163.354L160.144 38.6573C157.488 38.6573 155.495 39.9856 154.167 42.642L153.392 44.1916C156.27 43.1955 157.93 42.642 158.484 42.5313L157.377 45.1878L154.72 51.0542L153.724 53.2679C153.614 53.3786 153.614 53.4892 153.614 53.5999L151.843 57.4739H153.282C153.614 57.5846 153.835 57.5846 153.835 57.5846H160.698C162.69 57.5846 163.907 57.4739 164.35 57.2526C165.125 56.9205 165.9 56.035 166.675 54.5961L168.778 50.1687Z" fill="#BAC4D1"/>
<path d="M182.427 46.0733C181.985 45.6306 181.763 44.9664 181.653 44.1916C181.763 38.436 181.874 34.6727 181.985 32.791C181.985 31.1307 181.874 29.5811 181.763 28.0315C181.431 25.8178 180.324 24.7109 178.332 24.7109C178 24.7109 177.779 24.7109 177.447 24.8216C174.901 27.6995 172.023 29.8025 168.813 31.02V33.7872C168.813 37.2184 168.813 40.8711 168.924 44.9664V51.829C169.034 54.8175 170.363 56.9205 172.908 58.2487L182.427 46.0733ZM178.111 49.7259C177.336 50.7221 176.561 51.1648 175.786 51.1648C174.347 51.1648 173.683 50.2794 173.794 48.3977H173.683V31.3521C173.794 29.6918 174.79 29.1384 175.343 29.1384C176.34 29.1384 176.893 30.9093 176.893 34.3406V38.768C176.893 38.5467 176.893 39.4321 176.782 41.4245C176.782 41.4245 176.782 41.9779 176.782 43.1955V42.5313C176.782 46.184 177.225 48.5084 178.111 49.7259Z" fill="#BAC4D1"/>
<path d="M202.214 53.3786C202.214 53.2679 202.214 53.2679 202.104 53.2679H201.771C200.222 53.4892 199.336 52.7144 199.226 50.9435L199.447 38.2146C199.558 35.0047 199.558 33.2337 199.558 32.9017C199.558 30.3559 199.558 28.8063 199.447 28.2529C199.226 26.5926 198.562 25.4857 197.455 25.043L191.478 29.3597C191.367 27.0353 190.703 25.5964 189.485 25.043L183.84 29.1384C183.951 29.2491 184.062 29.2491 184.172 29.2491C186.054 29.1384 186.497 30.2452 186.497 32.4589L186.386 49.6152C186.386 51.7183 186.497 53.0465 186.607 53.8213C187.05 55.8136 188.268 57.2526 190.371 58.2487L194.134 53.3786C194.134 53.2679 194.134 53.2679 194.023 53.2679H193.802C192.252 53.4892 191.367 52.7144 191.146 50.9435C191.478 39.2108 191.588 33.2337 191.588 32.9017V31.1307C191.92 31.02 192.252 30.9093 192.363 30.7987C192.695 30.688 192.917 30.688 193.138 30.7987C193.691 30.7987 194.134 31.1307 194.355 31.9055C194.466 32.5696 194.466 33.1231 194.355 33.5658L194.466 49.6152C194.466 52.161 194.466 53.5999 194.577 53.8213C195.13 55.8136 196.348 57.2526 198.451 58.2487L202.214 53.3786Z" fill="#BAC4D1"/>
<path d="M215.918 33.7872C215.364 33.1231 215.032 32.3483 215.032 31.5735C214.921 28.5849 214.7 26.7033 214.368 25.9285C214.147 25.3751 213.815 24.9323 213.261 24.7109L203.299 31.9055C203.189 32.0162 203.189 32.1269 203.299 32.2376V48.5084C203.299 50.7221 203.41 52.161 203.521 52.8251C204.074 55.1495 205.735 56.9205 208.612 58.0274L210.051 58.6915L210.605 58.138C213.483 55.2602 215.253 52.2717 215.807 49.1725C216.139 47.5122 216.028 45.9626 215.586 44.5237V44.413L213.593 41.0924C214.589 44.1916 214.811 46.6267 214.147 48.5084L213.483 50.058C212.486 51.4969 211.601 52.2717 210.605 52.4931C208.834 52.9358 207.948 51.3862 207.948 47.8443V43.8596C209.387 40.4283 211.49 37.4398 214.368 35.0047C215.143 34.4513 215.475 34.1192 215.586 34.0085L215.918 33.7872ZM210.605 36.3329C209.719 38.436 208.834 39.9856 207.948 40.9817V30.5773C207.948 30.4666 208.059 30.4666 208.17 30.4666C208.391 30.3559 208.612 30.3559 208.944 30.4666C209.387 30.4666 209.719 30.688 210.051 31.1307C210.383 31.9055 210.605 33.6765 210.605 36.3329Z" fill="#BAC4D1"/>
</svg>
