<svg width="272" height="80" viewBox="0 0 272 80" fill="none" xmlns="http://www.w3.org/2000/svg">
<path d="M72.4796 27.3387H66.8031V57.2177H61.6766V27.3387H56V22.7842H72.4796V27.3387Z" fill="#BAC4D1"/>
<path d="M89.3993 57.2177H75.1199V22.7842H89.2673V27.3387H80.2684V37.3937H88.0132V41.8601H80.2684V52.6632H89.3993V57.2177Z" fill="#BAC4D1"/>
<path d="M109.883 54.0714C109.883 56.1689 108.835 57.2177 106.737 57.2177H96C93.9611 57.2177 92.9417 56.1689 92.9417 54.0714V25.9526C92.9417 23.8403 93.9611 22.7842 96 22.7842H106.737C108.835 22.7842 109.883 23.8403 109.883 25.9526V34.0054H104.757V27.2067H98.0902V52.7952H104.757V45.5565H109.883V54.0714Z" fill="#BAC4D1"/>
<path d="M131.248 57.2177H126.055V41.7721H119.08V57.2177H113.932V22.7842H119.08V36.9757H126.055V22.7842H131.248V57.2177Z" fill="#BAC4D1"/>
<path d="M152.81 57.2177H148.299L140.048 35.5455C140.268 36.6016 140.378 37.4304 140.378 38.0318V57.2177H135.362V22.7842H139.872L148.123 44.0164C147.903 42.9603 147.793 42.1315 147.793 41.5301V22.7842H152.81V57.2177Z" fill="#BAC4D1"/>
<path d="M174.328 54.0714C174.328 56.1689 173.286 57.2177 171.204 57.2177H160.026C157.988 57.2177 156.968 56.1689 156.968 54.0714V25.9526C156.968 23.8403 157.988 22.7842 160.026 22.7842H171.204C173.286 22.7842 174.328 23.8403 174.328 25.9526V54.0714ZM169.179 52.7952V27.2067H162.117V52.7952H169.179Z" fill="#BAC4D1"/>
<path d="M195.626 22.7842L189.025 57.2617H183.899L177.32 22.7842H182.491L186.341 46.3926C186.37 47.0673 186.414 48.0501 186.473 49.3409C186.458 48.6662 186.502 47.6834 186.605 46.3926L190.477 22.7842H195.626Z" fill="#BAC4D1"/>
<path d="M216 57.2177H210.895L209.861 50.683H203.415L202.381 57.2177H197.298V57.1297L203.965 22.7402H209.377L216 57.2177ZM209.135 46.2606L206.627 30.727L204.097 46.2606H209.135Z" fill="#BAC4D1"/>
</svg>
