<svg width="272" height="81" viewBox="0 0 272 81" fill="none" xmlns="http://www.w3.org/2000/svg">
<path d="M82.6407 50.431C82.6407 50.8461 82.5666 51.2315 82.4183 51.5873C82.2701 51.9431 82.0625 52.2545 81.7957 52.5213C81.5437 52.7733 81.2397 52.9735 80.8839 53.1217C80.543 53.27 80.1723 53.3441 79.7721 53.3441H66.6963C65.9847 53.3441 65.2212 53.2626 64.4058 53.0995C63.6053 52.9364 62.8121 52.677 62.0264 52.3212C61.2407 51.9505 60.4772 51.491 59.7359 50.9424C59.0095 50.3791 58.372 49.7045 57.8235 48.9188C57.275 48.1183 56.8302 47.1991 56.4892 46.1613C56.1631 45.1236 56 43.9524 56 42.6478V29.3052H61.7818V42.6478C61.7818 43.4039 61.9078 44.0858 62.1598 44.6937C62.4267 45.2867 62.7825 45.7981 63.2272 46.2281C63.672 46.658 64.1909 46.9915 64.7839 47.2288C65.3917 47.4511 66.044 47.5623 66.7408 47.5623H76.8589V29.3052H82.6407V50.431Z" fill="#BAC4D1"/>
<path d="M114.574 45.2274C114.574 46.2206 114.448 47.1176 114.196 47.9181C113.944 48.7038 113.61 49.4006 113.195 50.0085C112.78 50.6015 112.298 51.1129 111.75 51.5429C111.201 51.958 110.623 52.2989 110.015 52.5658C109.422 52.8326 108.822 53.0328 108.214 53.1662C107.606 53.2848 107.028 53.3441 106.479 53.3441H96.05V47.5623H106.479C107.25 47.5623 107.829 47.3622 108.214 46.9619C108.599 46.5616 108.792 45.9834 108.792 45.2274V37.4442C108.792 36.6436 108.592 36.0506 108.192 35.6652C107.806 35.2797 107.236 35.087 106.479 35.087H96.0945C95.3088 35.087 94.7158 35.2871 94.3155 35.6874C93.9152 36.0729 93.7151 36.6436 93.7151 37.3997V60.8604H87.9333V37.3997C87.9333 36.4064 88.0593 35.5169 88.3113 34.7312C88.5634 33.9455 88.8969 33.2561 89.312 32.6631C89.742 32.0552 90.2312 31.5438 90.7797 31.1287C91.3282 30.6988 91.899 30.3504 92.492 30.0835C93.0998 29.8167 93.7077 29.6239 94.3155 29.5053C94.9382 29.3719 95.5163 29.3052 96.05 29.3052H106.479C107.473 29.3052 108.362 29.4312 109.148 29.6832C109.934 29.9353 110.623 30.2688 111.216 30.6839C111.824 31.099 112.335 31.5808 112.751 32.1294C113.18 32.6779 113.529 33.2561 113.796 33.8639C114.063 34.4569 114.255 35.0573 114.374 35.6652C114.507 36.273 114.574 36.8512 114.574 37.3997V45.2274Z" fill="#BAC4D1"/>
<path d="M142.749 45.2274C142.749 46.2206 142.623 47.1176 142.371 47.9181C142.119 48.7038 141.785 49.4006 141.37 50.0085C140.955 50.6015 140.473 51.1129 139.925 51.5429C139.376 51.958 138.798 52.2989 138.19 52.5658C137.597 52.8326 136.99 53.0328 136.367 53.1662C135.759 53.2848 135.181 53.3441 134.632 53.3441H118.977V47.5623H134.588C135.374 47.5623 135.967 47.3622 136.367 46.9619C136.767 46.5616 136.967 45.9834 136.967 45.2274C136.893 43.6855 136.115 42.9146 134.632 42.9146H125.671C124.396 42.9146 123.313 42.6923 122.424 42.2475C121.534 41.8028 120.808 41.2468 120.245 40.5797C119.696 39.9126 119.296 39.1935 119.044 38.4226C118.807 37.6517 118.688 36.9327 118.688 36.2656C118.688 34.9758 118.918 33.8936 119.377 33.0189C119.837 32.1294 120.415 31.4104 121.112 30.8618C121.809 30.3133 122.565 29.9204 123.38 29.6832C124.196 29.4312 124.959 29.3052 125.671 29.3052H139.88V35.087H125.715C125.419 35.087 125.181 35.124 125.003 35.1982C124.84 35.2575 124.714 35.3464 124.625 35.465C124.551 35.5688 124.507 35.6874 124.492 35.8208C124.477 35.9394 124.47 36.058 124.47 36.1766C124.485 36.4138 124.529 36.5991 124.603 36.7326C124.677 36.866 124.766 36.9624 124.87 37.0217C124.989 37.081 125.115 37.118 125.248 37.1329C125.396 37.1329 125.537 37.1329 125.671 37.1329H134.632C136.115 37.1329 137.375 37.3997 138.413 37.9334C139.451 38.4671 140.288 39.1417 140.926 39.957C141.563 40.7576 142.023 41.6323 142.304 42.5811C142.601 43.5299 142.749 44.412 142.749 45.2274Z" fill="#BAC4D1"/>
<path d="M152.689 24.3684H146.908V19.1426H152.689V24.3684ZM152.689 53.3441H146.908V29.3052H152.689V53.3441Z" fill="#BAC4D1"/>
<path d="M184.623 45.2274C184.623 46.2206 184.497 47.1176 184.245 47.9181C183.993 48.7038 183.659 49.4006 183.244 50.0085C182.829 50.6015 182.347 51.1129 181.798 51.5429C181.25 51.958 180.672 52.2989 180.064 52.5658C179.471 52.8326 178.863 53.0328 178.24 53.1662C177.633 53.2848 177.054 53.3441 176.506 53.3441H166.076C165.083 53.3441 164.194 53.2181 163.408 52.9661C162.622 52.714 161.925 52.3805 161.318 51.9654C160.725 51.5354 160.213 51.0462 159.783 50.4977C159.368 49.9492 159.027 49.3784 158.76 48.7854C158.493 48.1776 158.293 47.5697 158.16 46.9619C158.041 46.3392 157.982 45.7611 157.982 45.2274V37.3997C157.982 35.9172 158.249 34.6645 158.782 33.6415C159.331 32.6038 160.006 31.7662 160.806 31.1287C161.621 30.4764 162.504 30.0094 163.452 29.7277C164.401 29.446 165.276 29.3052 166.076 29.3052H176.506V35.087H166.121C165.35 35.087 164.764 35.2871 164.364 35.6874C163.964 36.0729 163.764 36.6436 163.764 37.3997V45.1829C163.764 45.9686 163.956 46.5616 164.342 46.9619C164.742 47.3622 165.32 47.5623 166.076 47.5623H176.506C177.292 47.5623 177.877 47.3622 178.263 46.9619C178.648 46.5616 178.841 45.9834 178.841 45.2274V19.1426H184.623V45.2274Z" fill="#BAC4D1"/>
<path d="M216 37.2663C216 38.0668 215.859 38.9341 215.577 39.8681C215.296 40.7872 214.836 41.6471 214.199 42.4477C213.576 43.2334 212.753 43.8931 211.73 44.4268C210.722 44.9605 209.492 45.2274 208.039 45.2274H197.609V39.7347H208.039C208.825 39.7347 209.432 39.4975 209.862 39.0231C210.292 38.5338 210.507 37.9334 210.507 37.2218C210.507 36.4657 210.263 35.8727 209.773 35.4428C209.299 35.0129 208.721 34.7979 208.039 34.7979H197.609C196.824 34.7979 196.216 35.0425 195.786 35.5317C195.356 36.0061 195.141 36.5991 195.141 37.3108V45.383C195.141 46.1539 195.378 46.7543 195.853 47.1843C196.342 47.6142 196.942 47.8292 197.654 47.8292H208.039V53.3441H197.609C196.809 53.3441 195.942 53.2033 195.008 52.9216C194.088 52.6399 193.229 52.1877 192.428 51.5651C191.642 50.9276 190.983 50.1048 190.449 49.0967C189.915 48.0738 189.648 46.8359 189.648 45.383V37.2663C189.648 36.4657 189.789 35.6059 190.071 34.6867C190.353 33.7527 190.805 32.8929 191.427 32.1071C192.065 31.3066 192.888 30.6395 193.896 30.1057C194.919 29.572 196.157 29.3052 197.609 29.3052H208.039C208.839 29.3052 209.699 29.446 210.618 29.7277C211.552 30.0094 212.412 30.469 213.198 31.1064C213.999 31.7291 214.666 32.5519 215.199 33.5748C215.733 34.5829 216 35.8134 216 37.2663Z" fill="#BAC4D1"/>
</svg>
