<svg width="40" height="41" viewBox="0 0 40 41" fill="none" xmlns="http://www.w3.org/2000/svg">
<path fill-rule="evenodd" clip-rule="evenodd" d="M20.0003 37.1663C12.812 34.9593 7.55078 28.2308 6.66699 22.1663V10.4997L20.0003 3.83301L33.3337 10.4997V22.1663C32.4499 28.2308 27.1886 34.9593 20.0003 37.1663ZM25.0003 30.588V30.4997H25.0955L25.0003 30.588ZM12.3213 21.8806C11.6699 21.2292 11.6705 20.1744 12.3213 19.5235C12.9722 18.8727 14.027 18.8721 14.6784 19.5235L18.2139 23.0591L25.285 15.988C25.9358 15.3372 26.9906 15.3366 27.642 15.988C28.2934 16.6394 28.2928 17.6942 27.642 18.345L19.3924 26.5946C18.7416 27.2454 17.6868 27.246 17.0354 26.5946L12.3213 21.8806Z" fill="#17B5BF"/>
</svg>
